  0
SECTION
  2
HEADER
  9
$ACADVER
  1
AC1014
  9
$HANDSEED
  5
FFFF
  9
$INSUNITS
 70
     4
  9
$MEASUREMENT
 70
     1
  0
ENDSEC
  0
SECTION
  2
TABLES
  0
TABLE
  2
VPORT
  5
8
330
0
100
AcDbSymbolTable
 70
     4
  0
VPORT
  5
2E
330
8
100
AcDbSymbolTableRecord
100
AcDbViewportTableRecord
  2
*ACTIVE
 70
     0
 10
0.0
 20
0.0
 11
1.0
 21
1.0
 12
210.0
 22
148.5
 13
0.0
 23
0.0
 14
10.0
 24
10.0
 15
10.0
 25
10.0
 16
0.0
 26
0.0
 36
1.0
 17
0.0
 27
0.0
 37
0.0
 40
341.0
 41
1.24
 42
50.0
 43
0.0
 44
0.0
 50
0.0
 51
0.0
 71
     0
 72
   100
 73
     1
 74
     3
 75
     0
 76
     0
 77
     0
 78
     0
  0
ENDTAB
  0
TABLE
  2
LTYPE
  5
5
330
0
100
AcDbSymbolTable
 70
     1
  0
LTYPE
  5
14
330
5
100
AcDbSymbolTableRecord
100
AcDbLinetypeTableRecord
  2
BYBLOCK
 70
     0
  3

 72
    65
 73
     0
 40
0.0
  0
LTYPE
  5
15
330
5
100
AcDbSymbolTableRecord
100
AcDbLinetypeTableRecord
  2
BYLAYER
 70
     0
  3

 72
    65
 73
     0
 40
0.0
  0
LTYPE
  5
16
330
5
100
AcDbSymbolTableRecord
100
AcDbLinetypeTableRecord
  2
CONTINUOUS
 70
     0
  3
Solid line
 72
    65
 73
     0
 40
0.0
  0
ENDTAB
  0
TABLE
  2
LAYER
  5
2
100
AcDbSymbolTable
 70
2
  0
LAYER
  5
50
100
AcDbSymbolTableRecord
100
AcDbLayerTableRecord
  2
0
 70
0
  6
CONTINUOUS
  0
LAYER
  5
51
100
AcDbSymbolTableRecord
100
AcDbLayerTableRecord
  2
Layer_1
 70
0
  6
CONTINUOUS
  0
ENDTAB
  0
TABLE
  2
STYLE
  5
3
330
0
100
AcDbSymbolTable
 70
     1
  0
STYLE
  5
11
330
3
100
AcDbSymbolTableRecord
100
AcDbTextStyleTableRecord
  2
STANDARD
 70
     0
 40
0.0
 41
1.0
 50
0.0
 71
     0
 42
2.5
  3
txt
  4

  0
ENDTAB
  0
TABLE
  2
VIEW
  5
6
330
0
100
AcDbSymbolTable
 70
     0
  0
ENDTAB
  0
TABLE
  2
UCS
  5
7
330
0
100
AcDbSymbolTable
 70
     0
  0
ENDTAB
  0
TABLE
  2
APPID
  5
9
330
0
100
AcDbSymbolTable
 70
     2
  0
APPID
  5
12
330
9
100
AcDbSymbolTableRecord
100
AcDbRegAppTableRecord
  2
ACAD
 70
     0
  0
ENDTAB
  0
TABLE
  2
DIMSTYLE
  5
A
330
0
100
AcDbSymbolTable
 70
     1
  0
DIMSTYLE
105
27
330
A
100
AcDbSymbolTableRecord
100
AcDbDimStyleTableRecord
  2
ISO-25
 70
     0
  3

  4

  5

  6

  7

 40
1.0
 41
2.5
 42
0.625
 43
3.75
 44
1.25
 45
0.0
 46
0.0
 47
0.0
 48
0.0
140
2.5
141
2.5
142
0.0
143
0.03937007874016
144
1.0
145
0.0
146
1.0
147
0.625
 71
     0
 72
     0
 73
     0
 74
     0
 75
     0
 76
     0
 77
     1
 78
     8
170
     0
171
     3
172
     1
173
     0
174
     0
175
     0
176
     0
177
     0
178
     0
270
     2
271
     2
272
     2
273
     2
274
     3
340
11
275
     0
280
     0
281
     0
282
     0
283
     0
284
     8
285
     0
286
     0
287
     3
288
     0
  0
ENDTAB
  0
TABLE
  2
BLOCK_RECORD
  5
1
330
0
100
AcDbSymbolTable
 70
     1
  0
BLOCK_RECORD
  5
1F
330
1
100
AcDbSymbolTableRecord
100
AcDbBlockTableRecord
  2
*MODEL_SPACE
  0
BLOCK_RECORD
  5
1B
330
1
100
AcDbSymbolTableRecord
100
AcDbBlockTableRecord
  2
*PAPER_SPACE
  0
ENDTAB
  0
ENDSEC
  0
SECTION
  2
BLOCKS
  0
BLOCK
  5
20
330
1F
100
AcDbEntity
  8
0
100
AcDbBlockBegin
  2
*MODEL_SPACE
 70
     0
 10
0.0
 20
0.0
 30
0.0
  3
*MODEL_SPACE
  1

  0
ENDBLK
  5
21
330
1F
100
AcDbEntity
  8
0
100
AcDbBlockEnd
  0
BLOCK
  5
1C
330
1B
100
AcDbEntity
 67
     1
  8
0
100
AcDbBlockBegin
  2
*PAPER_SPACE
  1

  0
ENDBLK
  5
1D
330
1B
100
AcDbEntity
 67
     1
  8
0
100
AcDbBlockEnd
  0
ENDSEC
  0
SECTION
  2
ENTITIES
  0
LWPOLYLINE
  5
100
100
AcDbEntity
  8
Layer_1
 62
7
100
AcDbPolyline
 90
10
 70
1
 10
35.882364
 20
218.340640
 30
0.0
 10
33.342357
 20
218.340640
 30
0.0
 10
33.342357
 20
238.491360
 30
0.0
 10
44.603054
 20
238.491360
 30
0.0
 10
44.603054
 20
236.261800
 30
0.0
 10
35.882364
 20
236.261800
 30
0.0
 10
35.882364
 20
229.121560
 30
0.0
 10
44.066831
 20
229.121560
 30
0.0
 10
44.066831
 20
226.892000
 30
0.0
 10
35.882364
 20
226.892000
 30
0.0
  0
LWPOLYLINE
  5
101
100
AcDbEntity
  8
Layer_1
 62
7
100
AcDbPolyline
 90
6
 70
1
 10
47.989705
 20
218.340640
 30
0.0
 10
47.989705
 20
238.491360
 30
0.0
 10
50.529712
 20
238.491360
 30
0.0
 10
50.529712
 20
220.598430
 30
0.0
 10
59.335070
 20
220.598430
 30
0.0
 10
59.335070
 20
218.340640
 30
0.0
  0
SPLINE
  5
102
100
AcDbEntity
  8
Layer_1
 62
7
100
AcDbSpline
 70
8
 71
3
 72
8
 73
4
 74
0
 40
0
 40
0
 40
0
 40
0
 40
1
 40
1
 40
1
 40
1
 10
69.974880
 20
232.931570
 30
0.0
 10
69.918433
 20
233.082090
 30
0.0
 10
69.824359
 20
233.354907
 30
0.0
 10
69.692657
 20
233.750020
 30
0.0
  0
SPLINE
  5
103
100
AcDbEntity
  8
Layer_1
 62
7
100
AcDbSpline
 70
8
 71
3
 72
8
 73
4
 74
0
 40
0
 40
0
 40
0
 40
0
 40
1
 40
1
 40
1
 40
1
 10
69.692657
 20
233.750020
 30
0.0
 10
69.560953
 20
234.145133
 30
0.0
 10
69.429249
 20
234.549653
 30
0.0
 10
69.297545
 20
234.963580
 30
0.0
  0
SPLINE
  5
104
100
AcDbEntity
  8
Layer_1
 62
7
100
AcDbSpline
 70
8
 71
3
 72
8
 73
4
 74
0
 40
0
 40
0
 40
0
 40
0
 40
1
 40
1
 40
1
 40
1
 10
69.297545
 20
234.963580
 30
0.0
 10
69.184656
 20
235.396320
 30
0.0
 10
69.090581
 20
235.725580
 30
0.0
 10
69.015322
 20
235.951360
 30
0.0
  0
SPLINE
  5
105
100
AcDbEntity
  8
Layer_1
 62
7
100
AcDbSpline
 70
8
 71
3
 72
8
 73
4
 74
0
 40
0
 40
0
 40
0
 40
0
 40
1
 40
1
 40
1
 40
1
 10
69.015322
 20
235.951360
 30
0.0
 10
68.883618
 20
235.368100
 30
0.0
 10
68.733099
 20
234.794247
 30
0.0
 10
68.563765
 20
234.229800
 30
0.0
  0
SPLINE
  5
106
100
AcDbEntity
  8
Layer_1
 62
7
100
AcDbSpline
 70
8
 71
3
 72
8
 73
4
 74
0
 40
0
 40
0
 40
0
 40
0
 40
1
 40
1
 40
1
 40
1
 10
68.563765
 20
234.229800
 30
0.0
 10
68.394432
 20
233.684167
 30
0.0
 10
68.253320
 20
233.251423
 30
0.0
 10
68.140431
 20
232.931570
 30
0.0
  0
LWPOLYLINE
  5
107
100
AcDbEntity
  8
Layer_1
 62
7
100
AcDbPolyline
 90
8
 70
1
 10
75.421784
 20
218.340640
 30
0.0
 10
72.994666
 20
224.577770
 30
0.0
 10
65.007755
 20
224.577770
 30
0.0
 10
62.608860
 20
218.340640
 30
0.0
 10
60.040631
 20
218.340640
 30
0.0
 10
67.914652
 20
238.576030
 30
0.0
 10
70.200659
 20
238.576030
 30
0.0
 10
78.046458
 20
218.340640
 30
0.0
  0
LWPOLYLINE
  5
108
100
AcDbEntity
  8
Layer_1
 62
7
100
AcDbPolyline
 90
4
 70
0
 10
68.140431
 20
232.931570
 30
0.0
 10
65.854424
 20
226.835550
 30
0.0
 10
72.232664
 20
226.835550
 30
0.0
 10
69.974880
 20
232.931570
 30
0.0
  0
SPLINE
  5
109
100
AcDbEntity
  8
Layer_1
 62
7
100
AcDbSpline
 70
8
 71
3
 72
8
 73
4
 74
0
 40
0
 40
0
 40
0
 40
0
 40
1
 40
1
 40
1
 40
1
 10
95.967604
 20
219.102640
 30
0.0
 10
94.876342
 20
218.745160
 30
0.0
 10
93.775672
 20
218.481753
 30
0.0
 10
92.665595
 20
218.312420
 30
0.0
  0
SPLINE
  5
10a
100
AcDbEntity
  8
Layer_1
 62
7
100
AcDbSpline
 70
8
 71
3
 72
8
 73
4
 74
0
 40
0
 40
0
 40
0
 40
0
 40
1
 40
1
 40
1
 40
1
 10
92.665595
 20
218.312420
 30
0.0
 10
91.555518
 20
218.143087
 30
0.0
 10
90.294922
 20
218.058420
 30
0.0
 10
88.883807
 20
218.058420
 30
0.0
  0
SPLINE
  5
10b
100
AcDbEntity
  8
Layer_1
 62
7
100
AcDbSpline
 70
8
 71
3
 72
8
 73
4
 74
0
 40
0
 40
0
 40
0
 40
0
 40
1
 40
1
 40
1
 40
1
 10
88.883807
 20
218.058420
 30
0.0
 10
86.795356
 20
218.058420
 30
0.0
 10
85.036166
 20
218.472347
 30
0.0
 10
83.606237
 20
219.300200
 30
0.0
  0
SPLINE
  5
10c
100
AcDbEntity
  8
Layer_1
 62
7
100
AcDbSpline
 70
8
 71
3
 72
8
 73
4
 74
0
 40
0
 40
0
 40
0
 40
0
 40
1
 40
1
 40
1
 40
1
 10
83.606237
 20
219.300200
 30
0.0
 10
82.176307
 20
220.146867
 30
0.0
 10
81.085045
 20
221.341610
 30
0.0
 10
80.332450
 20
222.884430
 30
0.0
  0
SPLINE
  5
10d
100
AcDbEntity
  8
Layer_1
 62
7
100
AcDbSpline
 70
8
 71
3
 72
8
 73
4
 74
0
 40
0
 40
0
 40
0
 40
0
 40
1
 40
1
 40
1
 40
1
 10
80.332450
 20
222.884430
 30
0.0
 10
79.598670
 20
224.446063
 30
0.0
 10
79.231780
 20
226.289920
 30
0.0
 10
79.231780
 20
228.416000
 30
0.0
  0
SPLINE
  5
10e
100
AcDbEntity
  8
Layer_1
 62
7
100
AcDbSpline
 70
8
 71
3
 72
8
 73
4
 74
0
 40
0
 40
0
 40
0
 40
0
 40
1
 40
1
 40
1
 40
1
 10
79.231780
 20
228.416000
 30
0.0
 10
79.231780
 20
230.523267
 30
0.0
 10
79.645707
 20
232.348310
 30
0.0
 10
80.473561
 20
233.891130
 30
0.0
  0
SPLINE
  5
10f
100
AcDbEntity
  8
Layer_1
 62
7
100
AcDbSpline
 70
8
 71
3
 72
8
 73
4
 74
0
 40
0
 40
0
 40
0
 40
0
 40
1
 40
1
 40
1
 40
1
 10
80.473561
 20
233.891130
 30
0.0
 10
81.301416
 20
235.433950
 30
0.0
 10
82.486752
 20
236.628693
 30
0.0
 10
84.029571
 20
237.475360
 30
0.0
  0
SPLINE
  5
110
100
AcDbEntity
  8
Layer_1
 62
7
100
AcDbSpline
 70
8
 71
3
 72
8
 73
4
 74
0
 40
0
 40
0
 40
0
 40
0
 40
1
 40
1
 40
1
 40
1
 10
84.029571
 20
237.475360
 30
0.0
 10
85.591205
 20
238.340847
 30
0.0
 10
87.472692
 20
238.773590
 30
0.0
 10
89.674031
 20
238.773590
 30
0.0
  0
SPLINE
  5
111
100
AcDbEntity
  8
Layer_1
 62
7
100
AcDbSpline
 70
8
 71
3
 72
8
 73
4
 74
0
 40
0
 40
0
 40
0
 40
0
 40
1
 40
1
 40
1
 40
1
 10
89.674031
 20
238.773590
 30
0.0
 10
90.802923
 20
238.773590
 30
0.0
 10
91.865963
 20
238.670107
 30
0.0
 10
92.863151
 20
238.463140
 30
0.0
  0
SPLINE
  5
112
100
AcDbEntity
  8
Layer_1
 62
7
100
AcDbSpline
 70
8
 71
3
 72
8
 73
4
 74
0
 40
0
 40
0
 40
0
 40
0
 40
1
 40
1
 40
1
 40
1
 10
92.863151
 20
238.463140
 30
0.0
 10
93.879154
 20
238.256180
 30
0.0
 10
94.819897
 20
237.964550
 30
0.0
 10
95.685381
 20
237.588250
 30
0.0
  0
LWPOLYLINE
  5
113
100
AcDbEntity
  8
Layer_1
 62
7
100
AcDbPolyline
 90
3
 70
0
 10
88.996696
 20
228.980450
 30
0.0
 10
95.967604
 20
228.980450
 30
0.0
 10
95.967604
 20
219.102640
 30
0.0
  0
SPLINE
  5
114
100
AcDbEntity
  8
Layer_1
 62
7
100
AcDbSpline
 70
8
 71
3
 72
8
 73
4
 74
0
 40
0
 40
0
 40
0
 40
0
 40
1
 40
1
 40
1
 40
1
 10
94.725823
 20
235.386910
 30
0.0
 10
94.010858
 20
235.706763
 30
0.0
 10
93.201818
 20
235.979580
 30
0.0
 10
92.298705
 20
236.205360
 30
0.0
  0
SPLINE
  5
115
100
AcDbEntity
  8
Layer_1
 62
7
100
AcDbSpline
 70
8
 71
3
 72
8
 73
4
 74
0
 40
0
 40
0
 40
0
 40
0
 40
1
 40
1
 40
1
 40
1
 10
92.298705
 20
236.205360
 30
0.0
 10
91.414406
 20
236.431140
 30
0.0
 10
90.492478
 20
236.544030
 30
0.0
 10
89.532920
 20
236.544030
 30
0.0
  0
SPLINE
  5
116
100
AcDbEntity
  8
Layer_1
 62
7
100
AcDbSpline
 70
8
 71
3
 72
8
 73
4
 74
0
 40
0
 40
0
 40
0
 40
0
 40
1
 40
1
 40
1
 40
1
 10
89.532920
 20
236.544030
 30
0.0
 10
87.124617
 20
236.544030
 30
0.0
 10
85.243130
 20
235.819657
 30
0.0
 10
83.888460
 20
234.370910
 30
0.0
  0
SPLINE
  5
117
100
AcDbEntity
  8
Layer_1
 62
7
100
AcDbSpline
 70
8
 71
3
 72
8
 73
4
 74
0
 40
0
 40
0
 40
0
 40
0
 40
1
 40
1
 40
1
 40
1
 10
83.888460
 20
234.370910
 30
0.0
 10
82.552604
 20
232.922163
 30
0.0
 10
81.884676
 20
230.937193
 30
0.0
 10
81.884676
 20
228.416000
 30
0.0
  0
SPLINE
  5
118
100
AcDbEntity
  8
Layer_1
 62
7
100
AcDbSpline
 70
8
 71
3
 72
8
 73
4
 74
0
 40
0
 40
0
 40
0
 40
0
 40
1
 40
1
 40
1
 40
1
 10
81.884676
 20
228.416000
 30
0.0
 10
81.884676
 20
226.816740
 30
0.0
 10
82.138677
 20
225.396220
 30
0.0
 10
82.646679
 20
224.154440
 30
0.0
  0
SPLINE
  5
119
100
AcDbEntity
  8
Layer_1
 62
7
100
AcDbSpline
 70
8
 71
3
 72
8
 73
4
 74
0
 40
0
 40
0
 40
0
 40
0
 40
1
 40
1
 40
1
 40
1
 10
82.646679
 20
224.154440
 30
0.0
 10
83.173495
 20
222.931473
 30
0.0
 10
83.991942
 20
221.971913
 30
0.0
 10
85.102019
 20
221.275760
 30
0.0
  0
SPLINE
  5
11a
100
AcDbEntity
  8
Layer_1
 62
7
100
AcDbSpline
 70
8
 71
3
 72
8
 73
4
 74
0
 40
0
 40
0
 40
0
 40
0
 40
1
 40
1
 40
1
 40
1
 10
85.102019
 20
221.275760
 30
0.0
 10
86.212096
 20
220.598427
 30
0.0
 10
87.670248
 20
220.259760
 30
0.0
 10
89.476475
 20
220.259760
 30
0.0
  0
SPLINE
  5
11b
100
AcDbEntity
  8
Layer_1
 62
7
100
AcDbSpline
 70
8
 71
3
 72
8
 73
4
 74
0
 40
0
 40
0
 40
0
 40
0
 40
1
 40
1
 40
1
 40
1
 10
89.476475
 20
220.259760
 30
0.0
 10
90.360774
 20
220.259760
 30
0.0
 10
91.113368
 20
220.306797
 30
0.0
 10
91.734259
 20
220.400870
 30
0.0
  0
SPLINE
  5
11c
100
AcDbEntity
  8
Layer_1
 62
7
100
AcDbSpline
 70
8
 71
3
 72
8
 73
4
 74
0
 40
0
 40
0
 40
0
 40
0
 40
1
 40
1
 40
1
 40
1
 10
91.734259
 20
220.400870
 30
0.0
 10
92.355150
 20
220.494943
 30
0.0
 10
92.919596
 20
220.607833
 30
0.0
 10
93.427597
 20
220.739540
 30
0.0
  0
LWPOLYLINE
  5
11d
100
AcDbEntity
  8
Layer_1
 62
7
100
AcDbPolyline
 90
2
 70
0
 10
95.685381
 20
237.588250
 30
0.0
 10
94.725823
 20
235.386910
 30
0.0
  0
LWPOLYLINE
  5
11e
100
AcDbEntity
  8
Layer_1
 62
7
100
AcDbPolyline
 90
4
 70
0
 10
93.427597
 20
220.739540
 30
0.0
 10
93.427597
 20
226.722670
 30
0.0
 10
88.996696
 20
226.722670
 30
0.0
 10
88.996696
 20
228.980450
 30
0.0
  0
SPLINE
  5
11f
100
AcDbEntity
  8
Layer_1
 62
7
100
AcDbSpline
 70
8
 71
3
 72
8
 73
4
 74
0
 40
0
 40
0
 40
0
 40
0
 40
1
 40
1
 40
1
 40
1
 10
115.441022
 20
238.491360
 30
0.0
 10
117.943399
 20
238.491360
 30
0.0
 10
119.787256
 20
238.011583
 30
0.0
 10
120.972593
 20
237.052030
 30
0.0
  0
SPLINE
  5
120
100
AcDbEntity
  8
Layer_1
 62
7
100
AcDbSpline
 70
8
 71
3
 72
8
 73
4
 74
0
 40
0
 40
0
 40
0
 40
0
 40
1
 40
1
 40
1
 40
1
 10
120.972593
 20
237.052030
 30
0.0
 10
122.176744
 20
236.111283
 30
0.0
 10
122.778820
 20
234.681353
 30
0.0
 10
122.778820
 20
232.762240
 30
0.0
  0
SPLINE
  5
121
100
AcDbEntity
  8
Layer_1
 62
7
100
AcDbSpline
 70
8
 71
3
 72
8
 73
4
 74
0
 40
0
 40
0
 40
0
 40
0
 40
1
 40
1
 40
1
 40
1
 10
122.778820
 20
232.762240
 30
0.0
 10
122.778820
 20
231.689793
 30
0.0
 10
122.581264
 20
230.796087
 30
0.0
 10
122.186151
 20
230.081120
 30
0.0
  0
SPLINE
  5
122
100
AcDbEntity
  8
Layer_1
 62
7
100
AcDbSpline
 70
8
 71
3
 72
8
 73
4
 74
0
 40
0
 40
0
 40
0
 40
0
 40
1
 40
1
 40
1
 40
1
 10
122.186151
 20
230.081120
 30
0.0
 10
121.791039
 20
229.366153
 30
0.0
 10
121.283038
 20
228.792300
 30
0.0
 10
120.662147
 20
228.359560
 30
0.0
  0
SPLINE
  5
123
100
AcDbEntity
  8
Layer_1
 62
7
100
AcDbSpline
 70
8
 71
3
 72
8
 73
4
 74
0
 40
0
 40
0
 40
0
 40
0
 40
1
 40
1
 40
1
 40
1
 10
120.662147
 20
228.359560
 30
0.0
 10
120.060072
 20
227.945633
 30
0.0
 10
119.420366
 20
227.616373
 30
0.0
 10
118.743031
 20
227.371780
 30
0.0
  0
LWPOLYLINE
  5
124
100
AcDbEntity
  8
Layer_1
 62
7
100
AcDbPolyline
 90
4
 70
1
 10
99.184965
 20
224.803550
 30
0.0
 10
99.184965
 20
227.004890
 30
0.0
 10
106.014761
 20
227.004890
 30
0.0
 10
106.014761
 20
224.803550
 30
0.0
  0
LWPOLYLINE
  5
125
100
AcDbEntity
  8
Layer_1
 62
7
100
AcDbPolyline
 90
9
 70
0
 10
118.743031
 20
227.371780
 30
0.0
 10
124.274602
 20
218.340640
 30
0.0
 10
121.311260
 20
218.340640
 30
0.0
 10
116.428802
 20
226.666220
 30
0.0
 10
112.421236
 20
226.666220
 30
0.0
 10
112.421236
 20
218.340640
 30
0.0
 10
109.881229
 20
218.340640
 30
0.0
 10
109.881229
 20
238.491360
 30
0.0
 10
115.441022
 20
238.491360
 30
0.0
  0
SPLINE
  5
126
100
AcDbEntity
  8
Layer_1
 62
7
100
AcDbSpline
 70
8
 71
3
 72
8
 73
4
 74
0
 40
0
 40
0
 40
0
 40
0
 40
1
 40
1
 40
1
 40
1
 10
115.441022
 20
228.811120
 30
0.0
 10
117.077915
 20
228.811120
 30
0.0
 10
118.272659
 20
229.130970
 30
0.0
 10
119.025254
 20
229.770670
 30
0.0
  0
SPLINE
  5
127
100
AcDbEntity
  8
Layer_1
 62
7
100
AcDbSpline
 70
8
 71
3
 72
8
 73
4
 74
0
 40
0
 40
0
 40
0
 40
0
 40
1
 40
1
 40
1
 40
1
 10
119.025254
 20
229.770670
 30
0.0
 10
119.777849
 20
230.429190
 30
0.0
 10
120.154146
 20
231.388750
 30
0.0
 10
120.154146
 20
232.649350
 30
0.0
  0
SPLINE
  5
128
100
AcDbEntity
  8
Layer_1
 62
7
100
AcDbSpline
 70
8
 71
3
 72
8
 73
4
 74
0
 40
0
 40
0
 40
0
 40
0
 40
1
 40
1
 40
1
 40
1
 10
120.154146
 20
232.649350
 30
0.0
 10
120.154146
 20
233.966390
 30
0.0
 10
119.759034
 20
234.897727
 30
0.0
 10
118.968809
 20
235.443360
 30
0.0
  0
SPLINE
  5
129
100
AcDbEntity
  8
Layer_1
 62
7
100
AcDbSpline
 70
8
 71
3
 72
8
 73
4
 74
0
 40
0
 40
0
 40
0
 40
0
 40
1
 40
1
 40
1
 40
1
 10
118.968809
 20
235.443360
 30
0.0
 10
118.178585
 20
236.007800
 30
0.0
 10
116.955619
 20
236.290020
 30
0.0
 10
115.299910
 20
236.290020
 30
0.0
  0
LWPOLYLINE
  5
12a
100
AcDbEntity
  8
Layer_1
 62
7
100
AcDbPolyline
 90
4
 70
0
 10
115.299910
 20
236.290020
 30
0.0
 10
112.421236
 20
236.290020
 30
0.0
 10
112.421236
 20
228.811120
 30
0.0
 10
115.441022
 20
228.811120
 30
0.0
  0
LWPOLYLINE
  5
12b
100
AcDbEntity
  8
Layer_1
 62
7
100
AcDbPolyline
 90
1
 70
1
 10
115.299910
 20
236.290020
 30
0.0
  0
SPLINE
  5
12c
100
AcDbEntity
  8
Layer_1
 62
7
100
AcDbSpline
 70
8
 71
3
 72
8
 73
4
 74
0
 40
0
 40
0
 40
0
 40
0
 40
1
 40
1
 40
1
 40
1
 10
134.632183
 20
232.931570
 30
0.0
 10
134.575736
 20
233.082090
 30
0.0
 10
134.481662
 20
233.354907
 30
0.0
 10
134.349960
 20
233.750020
 30
0.0
  0
SPLINE
  5
12d
100
AcDbEntity
  8
Layer_1
 62
7
100
AcDbSpline
 70
8
 71
3
 72
8
 73
4
 74
0
 40
0
 40
0
 40
0
 40
0
 40
1
 40
1
 40
1
 40
1
 10
134.349960
 20
233.750020
 30
0.0
 10
134.218256
 20
234.145133
 30
0.0
 10
134.086552
 20
234.549653
 30
0.0
 10
133.954848
 20
234.963580
 30
0.0
  0
SPLINE
  5
12e
100
AcDbEntity
  8
Layer_1
 62
7
100
AcDbSpline
 70
8
 71
3
 72
8
 73
4
 74
0
 40
0
 40
0
 40
0
 40
0
 40
1
 40
1
 40
1
 40
1
 10
133.954848
 20
234.963580
 30
0.0
 10
133.841959
 20
235.396320
 30
0.0
 10
133.747884
 20
235.725580
 30
0.0
 10
133.672625
 20
235.951360
 30
0.0
  0
SPLINE
  5
12f
100
AcDbEntity
  8
Layer_1
 62
7
100
AcDbSpline
 70
8
 71
3
 72
8
 73
4
 74
0
 40
0
 40
0
 40
0
 40
0
 40
1
 40
1
 40
1
 40
1
 10
133.672625
 20
235.951360
 30
0.0
 10
133.540921
 20
235.368100
 30
0.0
 10
133.390402
 20
234.794247
 30
0.0
 10
133.221068
 20
234.229800
 30
0.0
  0
SPLINE
  5
130
100
AcDbEntity
  8
Layer_1
 62
7
100
AcDbSpline
 70
8
 71
3
 72
8
 73
4
 74
0
 40
0
 40
0
 40
0
 40
0
 40
1
 40
1
 40
1
 40
1
 10
133.221068
 20
234.229800
 30
0.0
 10
133.051734
 20
233.684167
 30
0.0
 10
132.910623
 20
233.251423
 30
0.0
 10
132.797734
 20
232.931570
 30
0.0
  0
LWPOLYLINE
  5
131
100
AcDbEntity
  8
Layer_1
 62
7
100
AcDbPolyline
 90
8
 70
1
 10
140.079087
 20
218.340640
 30
0.0
 10
137.651969
 20
224.577770
 30
0.0
 10
129.665058
 20
224.577770
 30
0.0
 10
127.266163
 20
218.340640
 30
0.0
 10
124.697934
 20
218.340640
 30
0.0
 10
132.571955
 20
238.576030
 30
0.0
 10
134.857961
 20
238.576030
 30
0.0
 10
142.703760
 20
218.340640
 30
0.0
  0
LWPOLYLINE
  5
132
100
AcDbEntity
  8
Layer_1
 62
7
100
AcDbPolyline
 90
4
 70
0
 10
132.797734
 20
232.931570
 30
0.0
 10
130.511727
 20
226.835550
 30
0.0
 10
136.889967
 20
226.835550
 30
0.0
 10
134.632183
 20
232.931570
 30
0.0
  0
SPLINE
  5
133
100
AcDbEntity
  8
Layer_1
 62
7
100
AcDbSpline
 70
8
 71
3
 72
8
 73
4
 74
0
 40
0
 40
0
 40
0
 40
0
 40
1
 40
1
 40
1
 40
1
 10
160.060490
 20
218.058420
 30
0.0
 10
158.179003
 20
218.058420
 30
0.0
 10
156.673813
 20
218.707533
 30
0.0
 10
155.544920
 20
220.005760
 30
0.0
  0
SPLINE
  5
134
100
AcDbEntity
  8
Layer_1
 62
7
100
AcDbSpline
 70
8
 71
3
 72
8
 73
4
 74
0
 40
0
 40
0
 40
0
 40
0
 40
1
 40
1
 40
1
 40
1
 10
155.544920
 20
220.005760
 30
0.0
 10
154.416033
 20
221.322800
 30
0.0
 10
153.851590
 20
223.279547
 30
0.0
 10
153.851590
 20
225.876000
 30
0.0
  0
SPLINE
  5
135
100
AcDbEntity
  8
Layer_1
 62
7
100
AcDbSpline
 70
8
 71
3
 72
8
 73
4
 74
0
 40
0
 40
0
 40
0
 40
0
 40
1
 40
1
 40
1
 40
1
 10
153.851590
 20
225.876000
 30
0.0
 10
153.851590
 20
228.472447
 30
0.0
 10
154.416033
 20
230.429190
 30
0.0
 10
155.544920
 20
231.746230
 30
0.0
  0
SPLINE
  5
136
100
AcDbEntity
  8
Layer_1
 62
7
100
AcDbSpline
 70
8
 71
3
 72
8
 73
4
 74
0
 40
0
 40
0
 40
0
 40
0
 40
1
 40
1
 40
1
 40
1
 10
155.544920
 20
231.746230
 30
0.0
 10
156.692627
 20
233.082090
 30
0.0
 10
158.207223
 20
233.750020
 30
0.0
 10
160.088710
 20
233.750020
 30
0.0
  0
SPLINE
  5
137
100
AcDbEntity
  8
Layer_1
 62
7
100
AcDbSpline
 70
8
 71
3
 72
8
 73
4
 74
0
 40
0
 40
0
 40
0
 40
0
 40
1
 40
1
 40
1
 40
1
 10
160.088710
 20
233.750020
 30
0.0
 10
161.255237
 20
233.750020
 30
0.0
 10
162.205390
 20
233.533647
 30
0.0
 10
162.939170
 20
233.100900
 30
0.0
  0
SPLINE
  5
138
100
AcDbEntity
  8
Layer_1
 62
7
100
AcDbSpline
 70
8
 71
3
 72
8
 73
4
 74
0
 40
0
 40
0
 40
0
 40
0
 40
1
 40
1
 40
1
 40
1
 10
162.939170
 20
233.100900
 30
0.0
 10
163.691763
 20
232.668160
 30
0.0
 10
164.303247
 20
232.141347
 30
0.0
 10
164.773620
 20
231.520460
 30
0.0
  0
LWPOLYLINE
  5
139
100
AcDbEntity
  8
Layer_1
 62
7
100
AcDbPolyline
 90
12
 70
1
 10
151.142220
 20
218.340640
 30
0.0
 10
143.860870
 20
218.340640
 30
0.0
 10
143.860870
 20
219.808200
 30
0.0
 10
146.231540
 20
220.344430
 30
0.0
 10
146.231540
 20
236.459360
 30
0.0
 10
143.860870
 20
237.023800
 30
0.0
 10
143.860870
 20
238.491360
 30
0.0
 10
151.142220
 20
238.491360
 30
0.0
 10
151.142220
 20
237.023800
 30
0.0
 10
148.771550
 20
236.459360
 30
0.0
 10
148.771550
 20
220.344430
 30
0.0
 10
151.142220
 20
219.808200
 30
0.0
  0
SPLINE
  5
13a
100
AcDbEntity
  8
Layer_1
 62
7
100
AcDbSpline
 70
8
 71
3
 72
8
 73
4
 74
0
 40
0
 40
0
 40
0
 40
0
 40
1
 40
1
 40
1
 40
1
 10
164.942950
 20
231.520460
 30
0.0
 10
164.924150
 20
231.765053
 30
0.0
 10
164.886520
 20
232.122533
 30
0.0
 10
164.830060
 20
232.592900
 30
0.0
  0
SPLINE
  5
13b
100
AcDbEntity
  8
Layer_1
 62
7
100
AcDbSpline
 70
8
 71
3
 72
8
 73
4
 74
0
 40
0
 40
0
 40
0
 40
0
 40
1
 40
1
 40
1
 40
1
 10
164.830060
 20
232.592900
 30
0.0
 10
164.792460
 20
233.082087
 30
0.0
 10
164.773660
 20
233.467793
 30
0.0
 10
164.773660
 20
233.750020
 30
0.0
  0
LWPOLYLINE
  5
13c
100
AcDbEntity
  8
Layer_1
 62
7
100
AcDbPolyline
 90
2
 70
0
 10
164.773620
 20
231.520460
 30
0.0
 10
164.942950
 20
231.520460
 30
0.0
  0
SPLINE
  5
13d
100
AcDbEntity
  8
Layer_1
 62
7
100
AcDbSpline
 70
8
 71
3
 72
8
 73
4
 74
0
 40
0
 40
0
 40
0
 40
0
 40
1
 40
1
 40
1
 40
1
 10
164.773660
 20
220.372650
 30
0.0
 10
164.322100
 20
219.732943
 30
0.0
 10
163.720023
 20
219.187310
 30
0.0
 10
162.967430
 20
218.735750
 30
0.0
  0
SPLINE
  5
13e
100
AcDbEntity
  8
Layer_1
 62
7
100
AcDbSpline
 70
8
 71
3
 72
8
 73
4
 74
0
 40
0
 40
0
 40
0
 40
0
 40
1
 40
1
 40
1
 40
1
 10
162.967430
 20
218.735750
 30
0.0
 10
162.214837
 20
218.284197
 30
0.0
 10
161.245870
 20
218.058420
 30
0.0
 10
160.060530
 20
218.058420
 30
0.0
  0
LWPOLYLINE
  5
13f
100
AcDbEntity
  8
Layer_1
 62
7
100
AcDbPolyline
 90
7
 70
0
 10
164.773660
 20
233.750020
 30
0.0
 10
164.773660
 20
239.789590
 30
0.0
 10
167.257220
 20
239.789590
 30
0.0
 10
167.257220
 20
218.340640
 30
0.0
 10
165.253430
 20
218.340640
 30
0.0
 10
164.886540
 20
220.372650
 30
0.0
 10
164.773660
 20
220.372650
 30
0.0
  0
SPLINE
  5
140
100
AcDbEntity
  8
Layer_1
 62
7
100
AcDbSpline
 70
8
 71
3
 72
8
 73
4
 74
0
 40
0
 40
0
 40
0
 40
0
 40
1
 40
1
 40
1
 40
1
 10
160.455600
 20
220.118650
 30
0.0
 10
162.054867
 20
220.118650
 30
0.0
 10
163.174353
 20
220.551390
 30
0.0
 10
163.814060
 20
221.416870
 30
0.0
  0
SPLINE
  5
141
100
AcDbEntity
  8
Layer_1
 62
7
100
AcDbSpline
 70
8
 71
3
 72
8
 73
4
 74
0
 40
0
 40
0
 40
0
 40
0
 40
1
 40
1
 40
1
 40
1
 10
163.814060
 20
221.416870
 30
0.0
 10
164.472580
 20
222.301170
 30
0.0
 10
164.801840
 20
223.627620
 30
0.0
 10
164.801840
 20
225.396220
 30
0.0
  0
LWPOLYLINE
  5
142
100
AcDbEntity
  8
Layer_1
 62
7
100
AcDbPolyline
 90
1
 70
1
 10
160.060530
 20
218.058420
 30
0.0
  0
SPLINE
  5
143
100
AcDbEntity
  8
Layer_1
 62
7
100
AcDbSpline
 70
8
 71
3
 72
8
 73
4
 74
0
 40
0
 40
0
 40
0
 40
0
 40
1
 40
1
 40
1
 40
1
 10
164.801840
 20
225.847770
 30
0.0
 10
164.801840
 20
227.729257
 30
0.0
 10
164.491393
 20
229.168597
 30
0.0
 10
163.870500
 20
230.165790
 30
0.0
  0
SPLINE
  5
144
100
AcDbEntity
  8
Layer_1
 62
7
100
AcDbSpline
 70
8
 71
3
 72
8
 73
4
 74
0
 40
0
 40
0
 40
0
 40
0
 40
1
 40
1
 40
1
 40
1
 10
163.870500
 20
230.165790
 30
0.0
 10
163.249613
 20
231.181790
 30
0.0
 10
162.101907
 20
231.689790
 30
0.0
 10
160.427380
 20
231.689790
 30
0.0
  0
SPLINE
  5
145
100
AcDbEntity
  8
Layer_1
 62
7
100
AcDbSpline
 70
8
 71
3
 72
8
 73
4
 74
0
 40
0
 40
0
 40
0
 40
0
 40
1
 40
1
 40
1
 40
1
 10
160.427380
 20
231.689790
 30
0.0
 10
159.091527
 20
231.689790
 30
0.0
 10
158.084933
 20
231.153567
 30
0.0
 10
157.407600
 20
230.081120
 30
0.0
  0
SPLINE
  5
146
100
AcDbEntity
  8
Layer_1
 62
7
100
AcDbSpline
 70
8
 71
3
 72
8
 73
4
 74
0
 40
0
 40
0
 40
0
 40
0
 40
1
 40
1
 40
1
 40
1
 10
157.407600
 20
230.081120
 30
0.0
 10
156.749073
 20
229.027487
 30
0.0
 10
156.419810
 20
227.606963
 30
0.0
 10
156.419810
 20
225.819550
 30
0.0
  0
SPLINE
  5
147
100
AcDbEntity
  8
Layer_1
 62
7
100
AcDbSpline
 70
8
 71
3
 72
8
 73
4
 74
0
 40
0
 40
0
 40
0
 40
0
 40
1
 40
1
 40
1
 40
1
 10
156.419810
 20
225.819550
 30
0.0
 10
156.419810
 20
224.013323
 30
0.0
 10
156.749073
 20
222.611617
 30
0.0
 10
157.407600
 20
221.614430
 30
0.0
  0
SPLINE
  5
148
100
AcDbEntity
  8
Layer_1
 62
7
100
AcDbSpline
 70
8
 71
3
 72
8
 73
4
 74
0
 40
0
 40
0
 40
0
 40
0
 40
1
 40
1
 40
1
 40
1
 10
157.407600
 20
221.614430
 30
0.0
 10
158.084933
 20
220.617243
 30
0.0
 10
159.100933
 20
220.118650
 30
0.0
 10
160.455600
 20
220.118650
 30
0.0
  0
LWPOLYLINE
  5
149
100
AcDbEntity
  8
Layer_1
 62
7
100
AcDbPolyline
 90
2
 70
0
 10
164.801840
 20
225.396220
 30
0.0
 10
164.801840
 20
225.847770
 30
0.0
  0
SPLINE
  5
14a
100
AcDbEntity
  8
Layer_1
 62
7
100
AcDbSpline
 70
8
 71
3
 72
8
 73
4
 74
0
 40
0
 40
0
 40
0
 40
0
 40
1
 40
1
 40
1
 40
1
 10
179.477420
 20
213.881520
 30
0.0
 10
177.746453
 20
213.900320
 30
0.0
 10
176.382377
 20
214.276617
 30
0.0
 10
175.385190
 20
215.010410
 30
0.0
  0
SPLINE
  5
14b
100
AcDbEntity
  8
Layer_1
 62
7
100
AcDbSpline
 70
8
 71
3
 72
8
 73
4
 74
0
 40
0
 40
0
 40
0
 40
0
 40
1
 40
1
 40
1
 40
1
 10
175.385190
 20
215.010410
 30
0.0
 10
174.388003
 20
215.744190
 30
0.0
 10
173.889410
 20
216.863673
 30
0.0
 10
173.889410
 20
218.368860
 30
0.0
  0
LWPOLYLINE
  5
14c
100
AcDbEntity
  8
Layer_1
 62
7
100
AcDbPolyline
 90
1
 70
1
 10
160.455600
 20
220.118650
 30
0.0
  0
SPLINE
  5
14d
100
AcDbEntity
  8
Layer_1
 62
7
100
AcDbSpline
 70
8
 71
3
 72
8
 73
4
 74
0
 40
0
 40
0
 40
0
 40
0
 40
1
 40
1
 40
1
 40
1
 10
173.889410
 20
222.517540
 30
0.0
 10
173.889410
 20
223.477100
 30
0.0
 10
173.588370
 20
224.154437
 30
0.0
 10
172.986290
 20
224.549550
 30
0.0
  0
SPLINE
  5
14e
100
AcDbEntity
  8
Layer_1
 62
7
100
AcDbSpline
 70
8
 71
3
 72
8
 73
4
 74
0
 40
0
 40
0
 40
0
 40
0
 40
1
 40
1
 40
1
 40
1
 10
172.986290
 20
224.549550
 30
0.0
 10
172.403030
 20
224.963477
 30
0.0
 10
171.556363
 20
225.170440
 30
0.0
 10
170.446290
 20
225.170440
 30
0.0
  0
LWPOLYLINE
  5
14f
100
AcDbEntity
  8
Layer_1
 62
7
100
AcDbPolyline
 90
2
 70
0
 10
173.889410
 20
218.368860
 30
0.0
 10
173.889410
 20
222.517540
 30
0.0
  0
SPLINE
  5
150
100
AcDbEntity
  8
Layer_1
 62
7
100
AcDbSpline
 70
8
 71
3
 72
8
 73
4
 74
0
 40
0
 40
0
 40
0
 40
0
 40
1
 40
1
 40
1
 40
1
 10
170.446290
 20
227.230670
 30
0.0
 10
171.556363
 20
227.249470
 30
0.0
 10
172.403030
 20
227.456433
 30
0.0
 10
172.986290
 20
227.851560
 30
0.0
  0
SPLINE
  5
151
100
AcDbEntity
  8
Layer_1
 62
7
100
AcDbSpline
 70
8
 71
3
 72
8
 73
4
 74
0
 40
0
 40
0
 40
0
 40
0
 40
1
 40
1
 40
1
 40
1
 10
172.986290
 20
227.851560
 30
0.0
 10
173.588370
 20
228.246673
 30
0.0
 10
173.889410
 20
228.914600
 30
0.0
 10
173.889410
 20
229.855340
 30
0.0
  0
LWPOLYLINE
  5
152
100
AcDbEntity
  8
Layer_1
 62
7
100
AcDbPolyline
 90
2
 70
0
 10
170.446290
 20
225.170440
 30
0.0
 10
170.446290
 20
227.230670
 30
0.0
  0
SPLINE
  5
153
100
AcDbEntity
  8
Layer_1
 62
7
100
AcDbSpline
 70
8
 71
3
 72
8
 73
4
 74
0
 40
0
 40
0
 40
0
 40
0
 40
1
 40
1
 40
1
 40
1
 10
173.889410
 20
234.032240
 30
0.0
 10
173.889410
 20
235.537427
 30
0.0
 10
174.406817
 20
236.656910
 30
0.0
 10
175.441630
 20
237.390690
 30
0.0
  0
SPLINE
  5
154
100
AcDbEntity
  8
Layer_1
 62
7
100
AcDbSpline
 70
8
 71
3
 72
8
 73
4
 74
0
 40
0
 40
0
 40
0
 40
0
 40
1
 40
1
 40
1
 40
1
 10
175.441630
 20
237.390690
 30
0.0
 10
176.476450
 20
238.124470
 30
0.0
 10
177.821713
 20
238.491360
 30
0.0
 10
179.477420
 20
238.491360
 30
0.0
  0
LWPOLYLINE
  5
155
100
AcDbEntity
  8
Layer_1
 62
7
100
AcDbPolyline
 90
2
 70
0
 10
173.889410
 20
229.855340
 30
0.0
 10
173.889410
 20
234.032240
 30
0.0
  0
SPLINE
  5
156
100
AcDbEntity
  8
Layer_1
 62
7
100
AcDbSpline
 70
8
 71
3
 72
8
 73
4
 74
0
 40
0
 40
0
 40
0
 40
0
 40
1
 40
1
 40
1
 40
1
 10
179.477420
 20
236.459360
 30
0.0
 10
178.499047
 20
236.440560
 30
0.0
 10
177.727640
 20
236.224190
 30
0.0
 10
177.163200
 20
235.810250
 30
0.0
  0
SPLINE
  5
157
100
AcDbEntity
  8
Layer_1
 62
7
100
AcDbSpline
 70
8
 71
3
 72
8
 73
4
 74
0
 40
0
 40
0
 40
0
 40
0
 40
1
 40
1
 40
1
 40
1
 10
177.163200
 20
235.810250
 30
0.0
 10
176.617567
 20
235.396323
 30
0.0
 10
176.344750
 20
234.728393
 30
0.0
 10
176.344750
 20
233.806460
 30
0.0
  0
LWPOLYLINE
  5
158
100
AcDbEntity
  8
Layer_1
 62
7
100
AcDbPolyline
 90
2
 70
0
 10
179.477420
 20
238.491360
 30
0.0
 10
179.477420
 20
236.459360
 30
0.0
  0
SPLINE
  5
159
100
AcDbEntity
  8
Layer_1
 62
7
100
AcDbSpline
 70
8
 71
3
 72
8
 73
4
 74
0
 40
0
 40
0
 40
0
 40
0
 40
1
 40
1
 40
1
 40
1
 10
176.344750
 20
229.742450
 30
0.0
 10
176.344750
 20
227.804517
 30
0.0
 10
175.319340
 20
226.656810
 30
0.0
 10
173.268520
 20
226.299330
 30
0.0
  0
LWPOLYLINE
  5
15a
100
AcDbEntity
  8
Layer_1
 62
7
100
AcDbPolyline
 90
2
 70
0
 10
176.344750
 20
233.806460
 30
0.0
 10
176.344750
 20
229.742450
 30
0.0
  0
SPLINE
  5
15b
100
AcDbEntity
  8
Layer_1
 62
7
100
AcDbSpline
 70
8
 71
3
 72
8
 73
4
 74
0
 40
0
 40
0
 40
0
 40
0
 40
1
 40
1
 40
1
 40
1
 10
173.268520
 20
226.130000
 30
0.0
 10
175.319340
 20
225.772513
 30
0.0
 10
176.344750
 20
224.624807
 30
0.0
 10
176.344750
 20
222.686880
 30
0.0
  0
LWPOLYLINE
  5
15c
100
AcDbEntity
  8
Layer_1
 62
7
100
AcDbPolyline
 90
2
 70
0
 10
173.268520
 20
226.299330
 30
0.0
 10
173.268520
 20
226.130000
 30
0.0
  0
SPLINE
  5
15d
100
AcDbEntity
  8
Layer_1
 62
7
100
AcDbSpline
 70
8
 71
3
 72
8
 73
4
 74
0
 40
0
 40
0
 40
0
 40
0
 40
1
 40
1
 40
1
 40
1
 10
176.344750
 20
218.538200
 30
0.0
 10
176.344750
 20
217.616273
 30
0.0
 10
176.617567
 20
216.957753
 30
0.0
 10
177.163200
 20
216.562640
 30
0.0
  0
SPLINE
  5
15e
100
AcDbEntity
  8
Layer_1
 62
7
100
AcDbSpline
 70
8
 71
3
 72
8
 73
4
 74
0
 40
0
 40
0
 40
0
 40
0
 40
1
 40
1
 40
1
 40
1
 10
177.163200
 20
216.562640
 30
0.0
 10
177.708827
 20
216.148713
 30
0.0
 10
178.480233
 20
215.932340
 30
0.0
 10
179.477420
 20
215.913520
 30
0.0
  0
LWPOLYLINE
  5
15f
100
AcDbEntity
  8
Layer_1
 62
7
100
AcDbPolyline
 90
2
 70
0
 10
176.344750
 20
222.686880
 30
0.0
 10
176.344750
 20
218.538200
 30
0.0
  0
SPLINE
  5
160
100
AcDbEntity
  8
Layer_1
 62
7
100
AcDbSpline
 70
8
 71
3
 72
8
 73
4
 74
0
 40
0
 40
0
 40
0
 40
0
 40
1
 40
1
 40
1
 40
1
 10
10.454056
 20
201.266160
 30
0.0
 10
8.290346
 20
201.266160
 30
0.0
 10
6.587600
 20
200.541787
 30
0.0
 10
5.345819
 20
199.093040
 30
0.0
  0
SPLINE
  5
161
100
AcDbEntity
  8
Layer_1
 62
7
100
AcDbSpline
 70
8
 71
3
 72
8
 73
4
 74
0
 40
0
 40
0
 40
0
 40
0
 40
1
 40
1
 40
1
 40
1
 10
5.345819
 20
199.093040
 30
0.0
 10
4.104038
 20
197.644293
 30
0.0
 10
3.483148
 20
195.659327
 30
0.0
 10
3.483148
 20
193.138140
 30
0.0
  0
SPLINE
  5
162
100
AcDbEntity
  8
Layer_1
 62
7
100
AcDbSpline
 70
8
 71
3
 72
8
 73
4
 74
0
 40
0
 40
0
 40
0
 40
0
 40
1
 40
1
 40
1
 40
1
 10
3.483148
 20
193.138140
 30
0.0
 10
3.483148
 20
190.635760
 30
0.0
 10
4.057001
 20
188.650790
 30
0.0
 10
5.204708
 20
187.183230
 30
0.0
  0
SPLINE
  5
163
100
AcDbEntity
  8
Layer_1
 62
7
100
AcDbSpline
 70
8
 71
3
 72
8
 73
4
 74
0
 40
0
 40
0
 40
0
 40
0
 40
1
 40
1
 40
1
 40
1
 10
5.204708
 20
187.183230
 30
0.0
 10
6.371230
 20
185.734483
 30
0.0
 10
8.111605
 20
185.010110
 30
0.0
 10
10.425833
 20
185.010110
 30
0.0
  0
SPLINE
  5
164
100
AcDbEntity
  8
Layer_1
 62
7
100
AcDbSpline
 70
8
 71
3
 72
8
 73
4
 74
0
 40
0
 40
0
 40
0
 40
0
 40
1
 40
1
 40
1
 40
1
 10
10.425833
 20
185.010110
 30
0.0
 10
11.310132
 20
185.010110
 30
0.0
 10
12.147393
 20
185.085370
 30
0.0
 10
12.937618
 20
185.235890
 30
0.0
  0
SPLINE
  5
165
100
AcDbEntity
  8
Layer_1
 62
7
100
AcDbSpline
 70
8
 71
3
 72
8
 73
4
 74
0
 40
0
 40
0
 40
0
 40
0
 40
1
 40
1
 40
1
 40
1
 10
12.937618
 20
185.235890
 30
0.0
 10
13.727843
 20
185.386410
 30
0.0
 10
14.499252
 20
185.574560
 30
0.0
 10
15.251847
 20
185.800340
 30
0.0
  0
LWPOLYLINE
  5
166
100
AcDbEntity
  8
Layer_1
 62
7
100
AcDbPolyline
 90
2
 70
0
 10
179.477420
 20
215.913520
 30
0.0
 10
179.477420
 20
213.881520
 30
0.0
  0
SPLINE
  5
167
100
AcDbEntity
  8
Layer_1
 62
7
100
AcDbSpline
 70
8
 71
3
 72
8
 73
4
 74
0
 40
0
 40
0
 40
0
 40
0
 40
1
 40
1
 40
1
 40
1
 10
15.251847
 20
183.599000
 30
0.0
 10
14.499252
 20
183.316773
 30
0.0
 10
13.718435
 20
183.109810
 30
0.0
 10
12.909396
 20
182.978110
 30
0.0
  0
SPLINE
  5
168
100
AcDbEntity
  8
Layer_1
 62
7
100
AcDbSpline
 70
8
 71
3
 72
8
 73
4
 74
0
 40
0
 40
0
 40
0
 40
0
 40
1
 40
1
 40
1
 40
1
 10
12.909396
 20
182.978110
 30
0.0
 10
12.119171
 20
182.846403
 30
0.0
 10
11.169021
 20
182.780550
 30
0.0
 10
10.058944
 20
182.780550
 30
0.0
  0
SPLINE
  5
169
100
AcDbEntity
  8
Layer_1
 62
7
100
AcDbSpline
 70
8
 71
3
 72
8
 73
4
 74
0
 40
0
 40
0
 40
0
 40
0
 40
1
 40
1
 40
1
 40
1
 10
10.058944
 20
182.780550
 30
0.0
 10
8.008123
 20
182.780550
 30
0.0
 10
6.295970
 20
183.203883
 30
0.0
 10
4.922485
 20
184.050550
 30
0.0
  0
SPLINE
  5
16a
100
AcDbEntity
  8
Layer_1
 62
7
100
AcDbSpline
 70
8
 71
3
 72
8
 73
4
 74
0
 40
0
 40
0
 40
0
 40
0
 40
1
 40
1
 40
1
 40
1
 10
4.922485
 20
184.050550
 30
0.0
 10
3.549000
 20
184.897223
 30
0.0
 10
2.514182
 20
186.101377
 30
0.0
 10
1.818032
 20
187.663010
 30
0.0
  0
SPLINE
  5
16b
100
AcDbEntity
  8
Layer_1
 62
7
100
AcDbSpline
 70
8
 71
3
 72
8
 73
4
 74
0
 40
0
 40
0
 40
0
 40
0
 40
1
 40
1
 40
1
 40
1
 10
1.818032
 20
187.663010
 30
0.0
 10
1.140697
 20
189.224643
 30
0.0
 10
0.802029
 20
191.059093
 30
0.0
 10
0.802029
 20
193.166360
 30
0.0
  0
SPLINE
  5
16c
100
AcDbEntity
  8
Layer_1
 62
7
100
AcDbSpline
 70
8
 71
3
 72
8
 73
4
 74
0
 40
0
 40
0
 40
0
 40
0
 40
1
 40
1
 40
1
 40
1
 10
0.802029
 20
193.166360
 30
0.0
 10
0.802029
 20
195.198367
 30
0.0
 10
1.168919
 20
196.985777
 30
0.0
 10
1.902699
 20
198.528590
 30
0.0
  0
SPLINE
  5
16d
100
AcDbEntity
  8
Layer_1
 62
7
100
AcDbSpline
 70
8
 71
3
 72
8
 73
4
 74
0
 40
0
 40
0
 40
0
 40
0
 40
1
 40
1
 40
1
 40
1
 10
1.902699
 20
198.528590
 30
0.0
 10
2.655294
 20
200.090230
 30
0.0
 10
3.755963
 20
201.303790
 30
0.0
 10
5.204708
 20
202.169270
 30
0.0
  0
SPLINE
  5
16e
100
AcDbEntity
  8
Layer_1
 62
7
100
AcDbSpline
 70
8
 71
3
 72
8
 73
4
 74
0
 40
0
 40
0
 40
0
 40
0
 40
1
 40
1
 40
1
 40
1
 10
5.204708
 20
202.169270
 30
0.0
 10
6.653453
 20
203.053570
 30
0.0
 10
8.412643
 20
203.495720
 30
0.0
 10
10.482278
 20
203.495720
 30
0.0
  0
SPLINE
  5
16f
100
AcDbEntity
  8
Layer_1
 62
7
100
AcDbSpline
 70
8
 71
3
 72
8
 73
4
 74
0
 40
0
 40
0
 40
0
 40
0
 40
1
 40
1
 40
1
 40
1
 10
10.482278
 20
203.495720
 30
0.0
 10
12.608358
 20
203.495720
 30
0.0
 10
14.461622
 20
203.100607
 30
0.0
 10
16.042071
 20
202.310380
 30
0.0
  0
LWPOLYLINE
  5
170
100
AcDbEntity
  8
Layer_1
 62
7
100
AcDbPolyline
 90
2
 70
0
 10
15.251847
 20
185.800340
 30
0.0
 10
15.251847
 20
183.599000
 30
0.0
  0
SPLINE
  5
171
100
AcDbEntity
  8
Layer_1
 62
7
100
AcDbSpline
 70
8
 71
3
 72
8
 73
4
 74
0
 40
0
 40
0
 40
0
 40
0
 40
1
 40
1
 40
1
 40
1
 10
15.026068
 20
200.165490
 30
0.0
 10
14.405177
 20
200.447710
 30
0.0
 10
13.709027
 20
200.701710
 30
0.0
 10
12.937618
 20
200.927490
 30
0.0
  0
SPLINE
  5
172
100
AcDbEntity
  8
Layer_1
 62
7
100
AcDbSpline
 70
8
 71
3
 72
8
 73
4
 74
0
 40
0
 40
0
 40
0
 40
0
 40
1
 40
1
 40
1
 40
1
 10
12.937618
 20
200.927490
 30
0.0
 10
12.185023
 20
201.153270
 30
0.0
 10
11.357169
 20
201.266160
 30
0.0
 10
10.454056
 20
201.266160
 30
0.0
  0
LWPOLYLINE
  5
173
100
AcDbEntity
  8
Layer_1
 62
7
100
AcDbPolyline
 90
2
 70
0
 10
16.042071
 20
202.310380
 30
0.0
 10
15.026068
 20
200.165490
 30
0.0
  0
SPLINE
  5
174
100
AcDbEntity
  8
Layer_1
 62
7
100
AcDbSpline
 70
8
 71
3
 72
8
 73
4
 74
0
 40
0
 40
0
 40
0
 40
0
 40
1
 40
1
 40
1
 40
1
 10
31.677224
 20
193.166360
 30
0.0
 10
31.677224
 20
191.002647
 30
0.0
 10
31.451446
 20
189.139973
 30
0.0
 10
30.999889
 20
187.578340
 30
0.0
  0
SPLINE
  5
175
100
AcDbEntity
  8
Layer_1
 62
7
100
AcDbSpline
 70
8
 71
3
 72
8
 73
4
 74
0
 40
0
 40
0
 40
0
 40
0
 40
1
 40
1
 40
1
 40
1
 10
30.999889
 20
187.578340
 30
0.0
 10
30.548332
 20
186.035520
 30
0.0
 10
29.833367
 20
184.850183
 30
0.0
 10
28.854994
 20
184.022330
 30
0.0
  0
SPLINE
  5
176
100
AcDbEntity
  8
Layer_1
 62
7
100
AcDbSpline
 70
8
 71
3
 72
8
 73
4
 74
0
 40
0
 40
0
 40
0
 40
0
 40
1
 40
1
 40
1
 40
1
 10
28.854994
 20
184.022330
 30
0.0
 10
27.876621
 20
183.194477
 30
0.0
 10
26.578396
 20
182.780550
 30
0.0
 10
24.960317
 20
182.780550
 30
0.0
  0
SPLINE
  5
177
100
AcDbEntity
  8
Layer_1
 62
7
100
AcDbSpline
 70
8
 71
3
 72
8
 73
4
 74
0
 40
0
 40
0
 40
0
 40
0
 40
1
 40
1
 40
1
 40
1
 10
24.960317
 20
182.780550
 30
0.0
 10
22.683718
 20
182.780550
 30
0.0
 10
20.999788
 20
183.693070
 30
0.0
 10
19.908525
 20
185.518110
 30
0.0
  0
SPLINE
  5
178
100
AcDbEntity
  8
Layer_1
 62
7
100
AcDbSpline
 70
8
 71
3
 72
8
 73
4
 74
0
 40
0
 40
0
 40
0
 40
0
 40
1
 40
1
 40
1
 40
1
 10
19.908525
 20
185.518110
 30
0.0
 10
18.836078
 20
187.361970
 30
0.0
 10
18.299854
 20
189.911387
 30
0.0
 10
18.299854
 20
193.166360
 30
0.0
  0
SPLINE
  5
179
100
AcDbEntity
  8
Layer_1
 62
7
100
AcDbSpline
 70
8
 71
3
 72
8
 73
4
 74
0
 40
0
 40
0
 40
0
 40
0
 40
1
 40
1
 40
1
 40
1
 10
18.299854
 20
193.166360
 30
0.0
 10
18.299854
 20
195.348880
 30
0.0
 10
18.516225
 20
197.211550
 30
0.0
 10
18.948967
 20
198.754370
 30
0.0
  0
SPLINE
  5
17a
100
AcDbEntity
  8
Layer_1
 62
7
100
AcDbSpline
 70
8
 71
3
 72
8
 73
4
 74
0
 40
0
 40
0
 40
0
 40
0
 40
1
 40
1
 40
1
 40
1
 10
18.948967
 20
198.754370
 30
0.0
 10
19.400524
 20
200.297190
 30
0.0
 10
20.115489
 20
201.473120
 30
0.0
 10
21.093862
 20
202.282160
 30
0.0
  0
SPLINE
  5
17b
100
AcDbEntity
  8
Layer_1
 62
7
100
AcDbSpline
 70
8
 71
3
 72
8
 73
4
 74
0
 40
0
 40
0
 40
0
 40
0
 40
1
 40
1
 40
1
 40
1
 10
21.093862
 20
202.282160
 30
0.0
 10
22.072235
 20
203.110013
 30
0.0
 10
23.361053
 20
203.523940
 30
0.0
 10
24.960317
 20
203.523940
 30
0.0
  0
SPLINE
  5
17c
100
AcDbEntity
  8
Layer_1
 62
7
100
AcDbSpline
 70
8
 71
3
 72
8
 73
4
 74
0
 40
0
 40
0
 40
0
 40
0
 40
1
 40
1
 40
1
 40
1
 10
24.960317
 20
203.523940
 30
0.0
 10
27.218101
 20
203.523940
 30
0.0
 10
28.902032
 20
202.611420
 30
0.0
 10
30.012109
 20
200.786380
 30
0.0
  0
SPLINE
  5
17d
100
AcDbEntity
  8
Layer_1
 62
7
100
AcDbSpline
 70
8
 71
3
 72
8
 73
4
 74
0
 40
0
 40
0
 40
0
 40
0
 40
1
 40
1
 40
1
 40
1
 10
30.012109
 20
200.786380
 30
0.0
 10
31.122186
 20
198.980153
 30
0.0
 10
31.677224
 20
196.440147
 30
0.0
 10
31.677224
 20
193.166360
 30
0.0
  0
LWPOLYLINE
  5
17e
100
AcDbEntity
  8
Layer_1
 62
7
100
AcDbPolyline
 90
1
 70
1
 10
10.454056
 20
201.266160
 30
0.0
  0
SPLINE
  5
17f
100
AcDbEntity
  8
Layer_1
 62
7
100
AcDbSpline
 70
8
 71
3
 72
8
 73
4
 74
0
 40
0
 40
0
 40
0
 40
0
 40
1
 40
1
 40
1
 40
1
 10
20.783417
 20
193.166360
 30
0.0
 10
20.783417
 20
190.400573
 30
0.0
 10
21.093862
 20
188.330937
 30
0.0
 10
21.714752
 20
186.957450
 30
0.0
  0
SPLINE
  5
180
100
AcDbEntity
  8
Layer_1
 62
7
100
AcDbSpline
 70
8
 71
3
 72
8
 73
4
 74
0
 40
0
 40
0
 40
0
 40
0
 40
1
 40
1
 40
1
 40
1
 10
21.714752
 20
186.957450
 30
0.0
 10
22.354458
 20
185.583963
 30
0.0
 10
23.436313
 20
184.897220
 30
0.0
 10
24.960317
 20
184.897220
 30
0.0
  0
SPLINE
  5
181
100
AcDbEntity
  8
Layer_1
 62
7
100
AcDbSpline
 70
8
 71
3
 72
8
 73
4
 74
0
 40
0
 40
0
 40
0
 40
0
 40
1
 40
1
 40
1
 40
1
 10
24.960317
 20
184.897220
 30
0.0
 10
26.465506
 20
184.897220
 30
0.0
 10
27.537954
 20
185.574557
 30
0.0
 10
28.177659
 20
186.929230
 30
0.0
  0
SPLINE
  5
182
100
AcDbEntity
  8
Layer_1
 62
7
100
AcDbSpline
 70
8
 71
3
 72
8
 73
4
 74
0
 40
0
 40
0
 40
0
 40
0
 40
1
 40
1
 40
1
 40
1
 10
28.177659
 20
186.929230
 30
0.0
 10
28.836180
 20
188.302717
 30
0.0
 10
29.165440
 20
190.381760
 30
0.0
 10
29.165440
 20
193.166360
 30
0.0
  0
SPLINE
  5
183
100
AcDbEntity
  8
Layer_1
 62
7
100
AcDbSpline
 70
8
 71
3
 72
8
 73
4
 74
0
 40
0
 40
0
 40
0
 40
0
 40
1
 40
1
 40
1
 40
1
 10
29.165440
 20
193.166360
 30
0.0
 10
29.165440
 20
195.913327
 30
0.0
 10
28.836180
 20
197.973553
 30
0.0
 10
28.177659
 20
199.347040
 30
0.0
  0
SPLINE
  5
184
100
AcDbEntity
  8
Layer_1
 62
7
100
AcDbSpline
 70
8
 71
3
 72
8
 73
4
 74
0
 40
0
 40
0
 40
0
 40
0
 40
1
 40
1
 40
1
 40
1
 10
28.177659
 20
199.347040
 30
0.0
 10
27.537954
 20
200.720527
 30
0.0
 10
26.465506
 20
201.407270
 30
0.0
 10
24.960317
 20
201.407270
 30
0.0
  0
SPLINE
  5
185
100
AcDbEntity
  8
Layer_1
 62
7
100
AcDbSpline
 70
8
 71
3
 72
8
 73
4
 74
0
 40
0
 40
0
 40
0
 40
0
 40
1
 40
1
 40
1
 40
1
 10
24.960317
 20
201.407270
 30
0.0
 10
23.436313
 20
201.407270
 30
0.0
 10
22.354458
 20
200.720527
 30
0.0
 10
21.714752
 20
199.347040
 30
0.0
  0
SPLINE
  5
186
100
AcDbEntity
  8
Layer_1
 62
7
100
AcDbSpline
 70
8
 71
3
 72
8
 73
4
 74
0
 40
0
 40
0
 40
0
 40
0
 40
1
 40
1
 40
1
 40
1
 10
21.714752
 20
199.347040
 30
0.0
 10
21.093862
 20
197.973553
 30
0.0
 10
20.783417
 20
195.913327
 30
0.0
 10
20.783417
 20
193.166360
 30
0.0
  0
LWPOLYLINE
  5
187
100
AcDbEntity
  8
Layer_1
 62
7
100
AcDbPolyline
 90
1
 70
1
 10
31.677224
 20
193.166360
 30
0.0
  0
SPLINE
  5
188
100
AcDbEntity
  8
Layer_1
 62
7
100
AcDbSpline
 70
8
 71
3
 72
8
 73
4
 74
0
 40
0
 40
0
 40
0
 40
0
 40
1
 40
1
 40
1
 40
1
 10
40.821261
 20
182.780550
 30
0.0
 10
38.939775
 20
182.780550
 30
0.0
 10
37.434585
 20
183.429663
 30
0.0
 10
36.305694
 20
184.727890
 30
0.0
  0
SPLINE
  5
189
100
AcDbEntity
  8
Layer_1
 62
7
100
AcDbSpline
 70
8
 71
3
 72
8
 73
4
 74
0
 40
0
 40
0
 40
0
 40
0
 40
1
 40
1
 40
1
 40
1
 10
36.305694
 20
184.727890
 30
0.0
 10
35.176802
 20
186.044930
 30
0.0
 10
34.612355
 20
188.001677
 30
0.0
 10
34.612355
 20
190.598130
 30
0.0
  0
SPLINE
  5
18a
100
AcDbEntity
  8
Layer_1
 62
7
100
AcDbSpline
 70
8
 71
3
 72
8
 73
4
 74
0
 40
0
 40
0
 40
0
 40
0
 40
1
 40
1
 40
1
 40
1
 10
34.612355
 20
190.598130
 30
0.0
 10
34.612355
 20
193.194583
 30
0.0
 10
35.176802
 20
195.151330
 30
0.0
 10
36.305694
 20
196.468370
 30
0.0
  0
SPLINE
  5
18b
100
AcDbEntity
  8
Layer_1
 62
7
100
AcDbSpline
 70
8
 71
3
 72
8
 73
4
 74
0
 40
0
 40
0
 40
0
 40
0
 40
1
 40
1
 40
1
 40
1
 10
36.305694
 20
196.468370
 30
0.0
 10
37.453400
 20
197.804223
 30
0.0
 10
38.967997
 20
198.472150
 30
0.0
 10
40.849484
 20
198.472150
 30
0.0
  0
SPLINE
  5
18c
100
AcDbEntity
  8
Layer_1
 62
7
100
AcDbSpline
 70
8
 71
3
 72
8
 73
4
 74
0
 40
0
 40
0
 40
0
 40
0
 40
1
 40
1
 40
1
 40
1
 10
40.849484
 20
198.472150
 30
0.0
 10
42.016005
 20
198.472150
 30
0.0
 10
42.966156
 20
198.255780
 30
0.0
 10
43.699936
 20
197.823040
 30
0.0
  0
SPLINE
  5
18d
100
AcDbEntity
  8
Layer_1
 62
7
100
AcDbSpline
 70
8
 71
3
 72
8
 73
4
 74
0
 40
0
 40
0
 40
0
 40
0
 40
1
 40
1
 40
1
 40
1
 10
43.699936
 20
197.823040
 30
0.0
 10
44.452531
 20
197.390293
 30
0.0
 10
45.064014
 20
196.863477
 30
0.0
 10
45.534385
 20
196.242590
 30
0.0
  0
LWPOLYLINE
  5
18e
100
AcDbEntity
  8
Layer_1
 62
7
100
AcDbPolyline
 90
1
 70
1
 10
20.783417
 20
193.166360
 30
0.0
  0
SPLINE
  5
18f
100
AcDbEntity
  8
Layer_1
 62
7
100
AcDbSpline
 70
8
 71
3
 72
8
 73
4
 74
0
 40
0
 40
0
 40
0
 40
0
 40
1
 40
1
 40
1
 40
1
 10
45.703719
 20
196.242590
 30
0.0
 10
45.684905
 20
196.487183
 30
0.0
 10
45.647275
 20
196.844667
 30
0.0
 10
45.590830
 20
197.315040
 30
0.0
  0
SPLINE
  5
190
100
AcDbEntity
  8
Layer_1
 62
7
100
AcDbSpline
 70
8
 71
3
 72
8
 73
4
 74
0
 40
0
 40
0
 40
0
 40
0
 40
1
 40
1
 40
1
 40
1
 10
45.590830
 20
197.315040
 30
0.0
 10
45.553200
 20
197.804227
 30
0.0
 10
45.534385
 20
198.189930
 30
0.0
 10
45.534385
 20
198.472150
 30
0.0
  0
LWPOLYLINE
  5
191
100
AcDbEntity
  8
Layer_1
 62
7
100
AcDbPolyline
 90
2
 70
0
 10
45.534385
 20
196.242590
 30
0.0
 10
45.703719
 20
196.242590
 30
0.0
  0
SPLINE
  5
192
100
AcDbEntity
  8
Layer_1
 62
7
100
AcDbSpline
 70
8
 71
3
 72
8
 73
4
 74
0
 40
0
 40
0
 40
0
 40
0
 40
1
 40
1
 40
1
 40
1
 10
45.534385
 20
185.094780
 30
0.0
 10
45.082829
 20
184.455073
 30
0.0
 10
44.480753
 20
183.909443
 30
0.0
 10
43.728158
 20
183.457890
 30
0.0
  0
SPLINE
  5
193
100
AcDbEntity
  8
Layer_1
 62
7
100
AcDbSpline
 70
8
 71
3
 72
8
 73
4
 74
0
 40
0
 40
0
 40
0
 40
0
 40
1
 40
1
 40
1
 40
1
 10
43.728158
 20
183.457890
 30
0.0
 10
42.975564
 20
183.006330
 30
0.0
 10
42.006598
 20
182.780550
 30
0.0
 10
40.821261
 20
182.780550
 30
0.0
  0
LWPOLYLINE
  5
194
100
AcDbEntity
  8
Layer_1
 62
7
100
AcDbPolyline
 90
7
 70
0
 10
45.534385
 20
198.472150
 30
0.0
 10
45.534385
 20
204.511720
 30
0.0
 10
48.017947
 20
204.511720
 30
0.0
 10
48.017947
 20
183.062770
 30
0.0
 10
46.014164
 20
183.062770
 30
0.0
 10
45.647275
 20
185.094780
 30
0.0
 10
45.534385
 20
185.094780
 30
0.0
  0
SPLINE
  5
195
100
AcDbEntity
  8
Layer_1
 62
7
100
AcDbSpline
 70
8
 71
3
 72
8
 73
4
 74
0
 40
0
 40
0
 40
0
 40
0
 40
1
 40
1
 40
1
 40
1
 10
41.216374
 20
184.840780
 30
0.0
 10
42.815637
 20
184.840780
 30
0.0
 10
43.935122
 20
185.273520
 30
0.0
 10
44.574827
 20
186.139000
 30
0.0
  0
SPLINE
  5
196
100
AcDbEntity
  8
Layer_1
 62
7
100
AcDbSpline
 70
8
 71
3
 72
8
 73
4
 74
0
 40
0
 40
0
 40
0
 40
0
 40
1
 40
1
 40
1
 40
1
 10
44.574827
 20
186.139000
 30
0.0
 10
45.233348
 20
187.023300
 30
0.0
 10
45.562608
 20
188.349750
 30
0.0
 10
45.562608
 20
190.118350
 30
0.0
  0
LWPOLYLINE
  5
197
100
AcDbEntity
  8
Layer_1
 62
7
100
AcDbPolyline
 90
1
 70
1
 10
40.821261
 20
182.780550
 30
0.0
  0
SPLINE
  5
198
100
AcDbEntity
  8
Layer_1
 62
7
100
AcDbSpline
 70
8
 71
3
 72
8
 73
4
 74
0
 40
0
 40
0
 40
0
 40
0
 40
1
 40
1
 40
1
 40
1
 10
45.562608
 20
190.569910
 30
0.0
 10
45.562608
 20
192.451397
 30
0.0
 10
45.252162
 20
193.890733
 30
0.0
 10
44.631272
 20
194.887920
 30
0.0
  0
SPLINE
  5
199
100
AcDbEntity
  8
Layer_1
 62
7
100
AcDbSpline
 70
8
 71
3
 72
8
 73
4
 74
0
 40
0
 40
0
 40
0
 40
0
 40
1
 40
1
 40
1
 40
1
 10
44.631272
 20
194.887920
 30
0.0
 10
44.010381
 20
195.903920
 30
0.0
 10
42.862674
 20
196.411920
 30
0.0
 10
41.188151
 20
196.411920
 30
0.0
  0
SPLINE
  5
19a
100
AcDbEntity
  8
Layer_1
 62
7
100
AcDbSpline
 70
8
 71
3
 72
8
 73
4
 74
0
 40
0
 40
0
 40
0
 40
0
 40
1
 40
1
 40
1
 40
1
 10
41.188151
 20
196.411920
 30
0.0
 10
39.852296
 20
196.411920
 30
0.0
 10
38.845700
 20
195.875697
 30
0.0
 10
38.168365
 20
194.803250
 30
0.0
  0
SPLINE
  5
19b
100
AcDbEntity
  8
Layer_1
 62
7
100
AcDbSpline
 70
8
 71
3
 72
8
 73
4
 74
0
 40
0
 40
0
 40
0
 40
0
 40
1
 40
1
 40
1
 40
1
 10
38.168365
 20
194.803250
 30
0.0
 10
37.509845
 20
193.749617
 30
0.0
 10
37.180585
 20
192.329093
 30
0.0
 10
37.180585
 20
190.541680
 30
0.0
  0
SPLINE
  5
19c
100
AcDbEntity
  8
Layer_1
 62
7
100
AcDbSpline
 70
8
 71
3
 72
8
 73
4
 74
0
 40
0
 40
0
 40
0
 40
0
 40
1
 40
1
 40
1
 40
1
 10
37.180585
 20
190.541680
 30
0.0
 10
37.180585
 20
188.735453
 30
0.0
 10
37.509845
 20
187.333747
 30
0.0
 10
38.168365
 20
186.336560
 30
0.0
  0
SPLINE
  5
19d
100
AcDbEntity
  8
Layer_1
 62
7
100
AcDbSpline
 70
8
 71
3
 72
8
 73
4
 74
0
 40
0
 40
0
 40
0
 40
0
 40
1
 40
1
 40
1
 40
1
 10
38.168365
 20
186.336560
 30
0.0
 10
38.845700
 20
185.339373
 30
0.0
 10
39.861703
 20
184.840780
 30
0.0
 10
41.216374
 20
184.840780
 30
0.0
  0
LWPOLYLINE
  5
19e
100
AcDbEntity
  8
Layer_1
 62
7
100
AcDbPolyline
 90
2
 70
0
 10
45.562608
 20
190.118350
 30
0.0
 10
45.562608
 20
190.569910
 30
0.0
  0
LWPOLYLINE
  5
19f
100
AcDbEntity
  8
Layer_1
 62
7
100
AcDbPolyline
 90
1
 70
1
 10
41.216374
 20
184.840780
 30
0.0
  0
SPLINE
  5
1a0
100
AcDbEntity
  8
Layer_1
 62
7
100
AcDbSpline
 70
8
 71
3
 72
8
 73
4
 74
0
 40
0
 40
0
 40
0
 40
0
 40
1
 40
1
 40
1
 40
1
 10
60.661536
 20
196.214370
 30
0.0
 10
60.661536
 20
197.192743
 30
0.0
 10
60.680349
 20
198.020597
 30
0.0
 10
60.717976
 20
198.697930
 30
0.0
  0
SPLINE
  5
1a1
100
AcDbEntity
  8
Layer_1
 62
7
100
AcDbSpline
 70
8
 71
3
 72
8
 73
4
 74
0
 40
0
 40
0
 40
0
 40
0
 40
1
 40
1
 40
1
 40
1
 10
60.717976
 20
198.697930
 30
0.0
 10
60.755603
 20
199.394077
 30
0.0
 10
60.783826
 20
200.052597
 30
0.0
 10
60.802646
 20
200.673490
 30
0.0
  0
LWPOLYLINE
  5
1a2
100
AcDbEntity
  8
Layer_1
 62
7
100
AcDbPolyline
 90
11
 70
1
 10
65.995551
 20
187.634790
 30
0.0
 10
63.060432
 20
187.634790
 30
0.0
 10
63.060432
 20
183.062770
 30
0.0
 10
60.661536
 20
183.062770
 30
0.0
 10
60.661536
 20
187.634790
 30
0.0
 10
51.009510
 20
187.634790
 30
0.0
 10
51.009510
 20
189.751460
 30
0.0
 10
60.492202
 20
203.326390
 30
0.0
 10
63.060432
 20
203.326390
 30
0.0
 10
63.060432
 20
189.864350
 30
0.0
 10
65.995551
 20
189.864350
 30
0.0
  0
SPLINE
  5
1a3
100
AcDbEntity
  8
Layer_1
 62
7
100
AcDbSpline
 70
8
 71
3
 72
8
 73
4
 74
0
 40
0
 40
0
 40
0
 40
0
 40
1
 40
1
 40
1
 40
1
 10
60.689756
 20
200.673490
 30
0.0
 10
60.539237
 20
200.316010
 30
0.0
 10
60.351089
 20
199.930303
 30
0.0
 10
60.125310
 20
199.516370
 30
0.0
  0
SPLINE
  5
1a4
100
AcDbEntity
  8
Layer_1
 62
7
100
AcDbSpline
 70
8
 71
3
 72
8
 73
4
 74
0
 40
0
 40
0
 40
0
 40
0
 40
1
 40
1
 40
1
 40
1
 10
60.125310
 20
199.516370
 30
0.0
 10
59.899532
 20
199.102443
 30
0.0
 10
59.683161
 20
198.754370
 30
0.0
 10
59.476198
 20
198.472150
 30
0.0
  0
LWPOLYLINE
  5
1a5
100
AcDbEntity
  8
Layer_1
 62
7
100
AcDbPolyline
 90
2
 70
0
 10
60.802646
 20
200.673490
 30
0.0
 10
60.689756
 20
200.673490
 30
0.0
  0
LWPOLYLINE
  5
1a6
100
AcDbEntity
  8
Layer_1
 62
7
100
AcDbPolyline
 90
4
 70
0
 10
59.476198
 20
198.472150
 30
0.0
 10
53.436625
 20
189.864350
 30
0.0
 10
60.661534
 20
189.864350
 30
0.0
 10
60.661536
 20
196.214370
 30
0.0
  0
LWPOLYLINE
  5
1a7
100
AcDbEntity
  8
Layer_1
 62
7
100
AcDbPolyline
 90
4
 70
1
 10
79.147153
 20
178.716540
 30
0.0
 10
66.503562
 20
178.716540
 30
0.0
 10
66.503562
 20
180.522770
 30
0.0
 10
79.147153
 20
180.522770
 30
0.0
  0
SPLINE
  5
1a8
100
AcDbEntity
  8
Layer_1
 62
7
100
AcDbSpline
 70
8
 71
3
 72
8
 73
4
 74
0
 40
0
 40
0
 40
0
 40
0
 40
1
 40
1
 40
1
 40
1
 10
83.973173
 20
200.729930
 30
0.0
 10
84.029620
 20
200.146670
 30
0.0
 10
84.076657
 20
199.356447
 30
0.0
 10
84.114285
 20
198.359260
 30
0.0
  0
SPLINE
  5
1a9
100
AcDbEntity
  8
Layer_1
 62
7
100
AcDbSpline
 70
8
 71
3
 72
8
 73
4
 74
0
 40
0
 40
0
 40
0
 40
0
 40
1
 40
1
 40
1
 40
1
 10
84.114285
 20
198.359260
 30
0.0
 10
84.151912
 20
197.380887
 30
0.0
 10
84.170725
 20
196.355477
 30
0.0
 10
84.170725
 20
195.283030
 30
0.0
  0
LWPOLYLINE
  5
1aa
100
AcDbEntity
  8
Layer_1
 62
7
100
AcDbPolyline
 90
3
 70
0
 10
90.718303
 20
183.062770
 30
0.0
 10
84.086062
 20
200.729930
 30
0.0
 10
83.973173
 20
200.729930
 30
0.0
  0
SPLINE
  5
1ab
100
AcDbEntity
  8
Layer_1
 62
7
100
AcDbSpline
 70
8
 71
3
 72
8
 73
4
 74
0
 40
0
 40
0
 40
0
 40
0
 40
1
 40
1
 40
1
 40
1
 10
99.438993
 20
195.452360
 30
0.0
 10
99.438993
 20
196.430733
 30
0.0
 10
99.457810
 20
197.399700
 30
0.0
 10
99.495443
 20
198.359260
 30
0.0
  0
SPLINE
  5
1ac
100
AcDbEntity
  8
Layer_1
 62
7
100
AcDbSpline
 70
8
 71
3
 72
8
 73
4
 74
0
 40
0
 40
0
 40
0
 40
0
 40
1
 40
1
 40
1
 40
1
 10
99.495443
 20
198.359260
 30
0.0
 10
99.551890
 20
199.318820
 30
0.0
 10
99.598927
 20
200.099637
 30
0.0
 10
99.636554
 20
200.701710
 30
0.0
  0
LWPOLYLINE
  5
1ad
100
AcDbEntity
  8
Layer_1
 62
7
100
AcDbPolyline
 90
12
 70
0
 10
84.170725
 20
195.283030
 30
0.0
 10
84.170725
 20
183.062770
 30
0.0
 10
81.828278
 20
183.062770
 30
0.0
 10
81.828278
 20
203.213500
 30
0.0
 10
85.581844
 20
203.213500
 30
0.0
 10
91.790750
 20
186.703450
 30
0.0
 10
91.903639
 20
186.703450
 30
0.0
 10
98.225434
 20
203.213500
 30
0.0
 10
101.950778
 20
203.213500
 30
0.0
 10
101.950778
 20
183.062770
 30
0.0
 10
99.438993
 20
183.062770
 30
0.0
 10
99.438993
 20
195.452360
 30
0.0
  0
LWPOLYLINE
  5
1ae
100
AcDbEntity
  8
Layer_1
 62
7
100
AcDbPolyline
 90
4
 70
0
 10
99.636554
 20
200.701710
 30
0.0
 10
99.523660
 20
200.701710
 30
0.0
 10
92.806753
 20
183.062770
 30
0.0
 10
90.718303
 20
183.062770
 30
0.0
  0
SPLINE
  5
1af
100
AcDbEntity
  8
Layer_1
 62
7
100
AcDbSpline
 70
8
 71
3
 72
8
 73
4
 74
0
 40
0
 40
0
 40
0
 40
0
 40
1
 40
1
 40
1
 40
1
 10
114.933028
 20
196.214370
 30
0.0
 10
114.933028
 20
197.192743
 30
0.0
 10
114.951841
 20
198.020597
 30
0.0
 10
114.989468
 20
198.697930
 30
0.0
  0
SPLINE
  5
1b0
100
AcDbEntity
  8
Layer_1
 62
7
100
AcDbSpline
 70
8
 71
3
 72
8
 73
4
 74
0
 40
0
 40
0
 40
0
 40
0
 40
1
 40
1
 40
1
 40
1
 10
114.989468
 20
198.697930
 30
0.0
 10
115.027095
 20
199.394077
 30
0.0
 10
115.055318
 20
200.052597
 30
0.0
 10
115.074138
 20
200.673490
 30
0.0
  0
LWPOLYLINE
  5
1b1
100
AcDbEntity
  8
Layer_1
 62
7
100
AcDbPolyline
 90
11
 70
1
 10
120.267043
 20
187.634790
 30
0.0
 10
117.331924
 20
187.634790
 30
0.0
 10
117.331924
 20
183.062770
 30
0.0
 10
114.933028
 20
183.062770
 30
0.0
 10
114.933028
 20
187.634790
 30
0.0
 10
105.281002
 20
187.634790
 30
0.0
 10
105.281002
 20
189.751460
 30
0.0
 10
114.763694
 20
203.326390
 30
0.0
 10
117.331924
 20
203.326390
 30
0.0
 10
117.331924
 20
189.864350
 30
0.0
 10
120.267043
 20
189.864350
 30
0.0
  0
SPLINE
  5
1b2
100
AcDbEntity
  8
Layer_1
 62
7
100
AcDbSpline
 70
8
 71
3
 72
8
 73
4
 74
0
 40
0
 40
0
 40
0
 40
0
 40
1
 40
1
 40
1
 40
1
 10
114.961248
 20
200.673490
 30
0.0
 10
114.810729
 20
200.316010
 30
0.0
 10
114.622581
 20
199.930303
 30
0.0
 10
114.396802
 20
199.516370
 30
0.0
  0
SPLINE
  5
1b3
100
AcDbEntity
  8
Layer_1
 62
7
100
AcDbSpline
 70
8
 71
3
 72
8
 73
4
 74
0
 40
0
 40
0
 40
0
 40
0
 40
1
 40
1
 40
1
 40
1
 10
114.396802
 20
199.516370
 30
0.0
 10
114.171024
 20
199.102443
 30
0.0
 10
113.954653
 20
198.754370
 30
0.0
 10
113.747690
 20
198.472150
 30
0.0
  0
LWPOLYLINE
  5
1b4
100
AcDbEntity
  8
Layer_1
 62
7
100
AcDbPolyline
 90
2
 70
0
 10
115.074138
 20
200.673490
 30
0.0
 10
114.961248
 20
200.673490
 30
0.0
  0
SPLINE
  5
1b5
100
AcDbEntity
  8
Layer_1
 62
7
100
AcDbSpline
 70
8
 71
3
 72
8
 73
4
 74
0
 40
0
 40
0
 40
0
 40
0
 40
1
 40
1
 40
1
 40
1
 10
129.298189
 20
182.780550
 30
0.0
 10
127.962334
 20
182.780550
 30
0.0
 10
126.767590
 20
183.053367
 30
0.0
 10
125.713957
 20
183.599000
 30
0.0
  0
SPLINE
  5
1b6
100
AcDbEntity
  8
Layer_1
 62
7
100
AcDbSpline
 70
8
 71
3
 72
8
 73
4
 74
0
 40
0
 40
0
 40
0
 40
0
 40
1
 40
1
 40
1
 40
1
 10
125.713957
 20
183.599000
 30
0.0
 10
124.679139
 20
184.144627
 30
0.0
 10
123.860692
 20
184.991293
 30
0.0
 10
123.258617
 20
186.139000
 30
0.0
  0
SPLINE
  5
1b7
100
AcDbEntity
  8
Layer_1
 62
7
100
AcDbSpline
 70
8
 71
3
 72
8
 73
4
 74
0
 40
0
 40
0
 40
0
 40
0
 40
1
 40
1
 40
1
 40
1
 10
123.258617
 20
186.139000
 30
0.0
 10
122.675356
 20
187.286707
 30
0.0
 10
122.383725
 20
188.754267
 30
0.0
 10
122.383725
 20
190.541680
 30
0.0
  0
SPLINE
  5
1b8
100
AcDbEntity
  8
Layer_1
 62
7
100
AcDbSpline
 70
8
 71
3
 72
8
 73
4
 74
0
 40
0
 40
0
 40
0
 40
0
 40
1
 40
1
 40
1
 40
1
 10
122.383725
 20
190.541680
 30
0.0
 10
122.383725
 20
192.404353
 30
0.0
 10
122.694170
 20
193.918950
 30
0.0
 10
123.315061
 20
195.085470
 30
0.0
  0
SPLINE
  5
1b9
100
AcDbEntity
  8
Layer_1
 62
7
100
AcDbSpline
 70
8
 71
3
 72
8
 73
4
 74
0
 40
0
 40
0
 40
0
 40
0
 40
1
 40
1
 40
1
 40
1
 10
123.315061
 20
195.085470
 30
0.0
 10
123.935952
 20
196.251997
 30
0.0
 10
124.773213
 20
197.108073
 30
0.0
 10
125.826846
 20
197.653700
 30
0.0
  0
SPLINE
  5
1ba
100
AcDbEntity
  8
Layer_1
 62
7
100
AcDbSpline
 70
8
 71
3
 72
8
 73
4
 74
0
 40
0
 40
0
 40
0
 40
0
 40
1
 40
1
 40
1
 40
1
 10
125.826846
 20
197.653700
 30
0.0
 10
126.899293
 20
198.199333
 30
0.0
 10
128.112852
 20
198.472150
 30
0.0
 10
129.467523
 20
198.472150
 30
0.0
  0
SPLINE
  5
1bb
100
AcDbEntity
  8
Layer_1
 62
7
100
AcDbSpline
 70
8
 71
3
 72
8
 73
4
 74
0
 40
0
 40
0
 40
0
 40
0
 40
1
 40
1
 40
1
 40
1
 10
129.467523
 20
198.472150
 30
0.0
 10
130.238932
 20
198.472150
 30
0.0
 10
130.982119
 20
198.387483
 30
0.0
 10
131.697084
 20
198.218150
 30
0.0
  0
SPLINE
  5
1bc
100
AcDbEntity
  8
Layer_1
 62
7
100
AcDbSpline
 70
8
 71
3
 72
8
 73
4
 74
0
 40
0
 40
0
 40
0
 40
0
 40
1
 40
1
 40
1
 40
1
 10
131.697084
 20
198.218150
 30
0.0
 10
132.412049
 20
198.067630
 30
0.0
 10
132.995310
 20
197.879480
 30
0.0
 10
133.446867
 20
197.653700
 30
0.0
  0
LWPOLYLINE
  5
1bd
100
AcDbEntity
  8
Layer_1
 62
7
100
AcDbPolyline
 90
4
 70
0
 10
113.747690
 20
198.472150
 30
0.0
 10
107.708117
 20
189.864350
 30
0.0
 10
114.933026
 20
189.864350
 30
0.0
 10
114.933028
 20
196.214370
 30
0.0
  0
SPLINE
  5
1be
100
AcDbEntity
  8
Layer_1
 62
7
100
AcDbSpline
 70
8
 71
3
 72
8
 73
4
 74
0
 40
0
 40
0
 40
0
 40
0
 40
1
 40
1
 40
1
 40
1
 10
132.684865
 20
195.593480
 30
0.0
 10
132.233308
 20
195.762813
 30
0.0
 10
131.706492
 20
195.922737
 30
0.0
 10
131.104416
 20
196.073250
 30
0.0
  0
SPLINE
  5
1bf
100
AcDbEntity
  8
Layer_1
 62
7
100
AcDbSpline
 70
8
 71
3
 72
8
 73
4
 74
0
 40
0
 40
0
 40
0
 40
0
 40
1
 40
1
 40
1
 40
1
 10
131.104416
 20
196.073250
 30
0.0
 10
130.502340
 20
196.223770
 30
0.0
 10
129.937894
 20
196.299030
 30
0.0
 10
129.411078
 20
196.299030
 30
0.0
  0
SPLINE
  5
1c0
100
AcDbEntity
  8
Layer_1
 62
7
100
AcDbSpline
 70
8
 71
3
 72
8
 73
4
 74
0
 40
0
 40
0
 40
0
 40
0
 40
1
 40
1
 40
1
 40
1
 10
129.411078
 20
196.299030
 30
0.0
 10
126.438329
 20
196.299030
 30
0.0
 10
124.951955
 20
194.389323
 30
0.0
 10
124.951955
 20
190.569910
 30
0.0
  0
SPLINE
  5
1c1
100
AcDbEntity
  8
Layer_1
 62
7
100
AcDbSpline
 70
8
 71
3
 72
8
 73
4
 74
0
 40
0
 40
0
 40
0
 40
0
 40
1
 40
1
 40
1
 40
1
 10
124.951955
 20
190.569910
 30
0.0
 10
124.951955
 20
188.744863
 30
0.0
 10
125.309437
 20
187.343153
 30
0.0
 10
126.024402
 20
186.364780
 30
0.0
  0
SPLINE
  5
1c2
100
AcDbEntity
  8
Layer_1
 62
7
100
AcDbSpline
 70
8
 71
3
 72
8
 73
4
 74
0
 40
0
 40
0
 40
0
 40
0
 40
1
 40
1
 40
1
 40
1
 10
126.024402
 20
186.364780
 30
0.0
 10
126.758182
 20
185.405227
 30
0.0
 10
127.840037
 20
184.925450
 30
0.0
 10
129.269967
 20
184.925450
 30
0.0
  0
SPLINE
  5
1c3
100
AcDbEntity
  8
Layer_1
 62
7
100
AcDbSpline
 70
8
 71
3
 72
8
 73
4
 74
0
 40
0
 40
0
 40
0
 40
0
 40
1
 40
1
 40
1
 40
1
 10
129.269967
 20
184.925450
 30
0.0
 10
130.097821
 20
184.925450
 30
0.0
 10
130.822193
 20
185.010117
 30
0.0
 10
131.443084
 20
185.179450
 30
0.0
  0
SPLINE
  5
1c4
100
AcDbEntity
  8
Layer_1
 62
7
100
AcDbSpline
 70
8
 71
3
 72
8
 73
4
 74
0
 40
0
 40
0
 40
0
 40
0
 40
1
 40
1
 40
1
 40
1
 10
131.443084
 20
185.179450
 30
0.0
 10
132.082789
 20
185.348783
 30
0.0
 10
132.666050
 20
185.555747
 30
0.0
 10
133.192866
 20
185.800340
 30
0.0
  0
LWPOLYLINE
  5
1c5
100
AcDbEntity
  8
Layer_1
 62
7
100
AcDbPolyline
 90
2
 70
0
 10
133.446867
 20
197.653700
 30
0.0
 10
132.684865
 20
195.593480
 30
0.0
  0
SPLINE
  5
1c6
100
AcDbEntity
  8
Layer_1
 62
7
100
AcDbSpline
 70
8
 71
3
 72
8
 73
4
 74
0
 40
0
 40
0
 40
0
 40
0
 40
1
 40
1
 40
1
 40
1
 10
133.192866
 20
183.599000
 30
0.0
 10
132.684865
 20
183.335593
 30
0.0
 10
132.120419
 20
183.138037
 30
0.0
 10
131.499528
 20
183.006330
 30
0.0
  0
SPLINE
  5
1c7
100
AcDbEntity
  8
Layer_1
 62
7
100
AcDbSpline
 70
8
 71
3
 72
8
 73
4
 74
0
 40
0
 40
0
 40
0
 40
0
 40
1
 40
1
 40
1
 40
1
 10
131.499528
 20
183.006330
 30
0.0
 10
130.897453
 20
182.855810
 30
0.0
 10
130.163673
 20
182.780550
 30
0.0
 10
129.298189
 20
182.780550
 30
0.0
  0
LWPOLYLINE
  5
1c8
100
AcDbEntity
  8
Layer_1
 62
7
100
AcDbPolyline
 90
2
 70
0
 10
133.192866
 20
185.800340
 30
0.0
 10
133.192866
 20
183.599000
 30
0.0
  0
SPLINE
  5
1c9
100
AcDbEntity
  8
Layer_1
 62
7
100
AcDbSpline
 70
8
 71
3
 72
8
 73
4
 74
0
 40
0
 40
0
 40
0
 40
0
 40
1
 40
1
 40
1
 40
1
 10
139.260656
 20
198.218150
 30
0.0
 10
139.260656
 20
197.465557
 30
0.0
 10
139.213619
 20
196.760000
 30
0.0
 10
139.119545
 20
196.101480
 30
0.0
  0
LWPOLYLINE
  5
1ca
100
AcDbEntity
  8
Layer_1
 62
7
100
AcDbPolyline
 90
1
 70
1
 10
129.298189
 20
182.780550
 30
0.0
  0
SPLINE
  5
1cb
100
AcDbEntity
  8
Layer_1
 62
7
100
AcDbSpline
 70
8
 71
3
 72
8
 73
4
 74
0
 40
0
 40
0
 40
0
 40
0
 40
1
 40
1
 40
1
 40
1
 10
139.288879
 20
196.101480
 30
0.0
 10
139.778065
 20
196.872887
 30
0.0
 10
140.436585
 20
197.456147
 30
0.0
 10
141.264440
 20
197.851260
 30
0.0
  0
SPLINE
  5
1cc
100
AcDbEntity
  8
Layer_1
 62
7
100
AcDbSpline
 70
8
 71
3
 72
8
 73
4
 74
0
 40
0
 40
0
 40
0
 40
0
 40
1
 40
1
 40
1
 40
1
 10
141.264440
 20
197.851260
 30
0.0
 10
142.111107
 20
198.246373
 30
0.0
 10
143.023627
 20
198.443930
 30
0.0
 10
144.002000
 20
198.443930
 30
0.0
  0
SPLINE
  5
1cd
100
AcDbEntity
  8
Layer_1
 62
7
100
AcDbSpline
 70
8
 71
3
 72
8
 73
4
 74
0
 40
0
 40
0
 40
0
 40
0
 40
1
 40
1
 40
1
 40
1
 10
144.002000
 20
198.443930
 30
0.0
 10
145.845860
 20
198.443930
 30
0.0
 10
147.228753
 20
198.001780
 30
0.0
 10
148.150680
 20
197.117480
 30
0.0
  0
SPLINE
  5
1ce
100
AcDbEntity
  8
Layer_1
 62
7
100
AcDbSpline
 70
8
 71
3
 72
8
 73
4
 74
0
 40
0
 40
0
 40
0
 40
0
 40
1
 40
1
 40
1
 40
1
 10
148.150680
 20
197.117480
 30
0.0
 10
149.072607
 20
196.251993
 30
0.0
 10
149.533570
 20
194.850287
 30
0.0
 10
149.533570
 20
192.912360
 30
0.0
  0
LWPOLYLINE
  5
1cf
100
AcDbEntity
  8
Layer_1
 62
7
100
AcDbPolyline
 90
2
 70
0
 10
139.119545
 20
196.101480
 30
0.0
 10
139.288879
 20
196.101480
 30
0.0
  0
SPLINE
  5
1d0
100
AcDbEntity
  8
Layer_1
 62
7
100
AcDbSpline
 70
8
 71
3
 72
8
 73
4
 74
0
 40
0
 40
0
 40
0
 40
0
 40
1
 40
1
 40
1
 40
1
 10
147.078230
 20
192.743020
 30
0.0
 10
147.078230
 20
195.170140
 30
0.0
 10
145.949340
 20
196.383700
 30
0.0
 10
143.691560
 20
196.383700
 30
0.0
  0
SPLINE
  5
1d1
100
AcDbEntity
  8
Layer_1
 62
7
100
AcDbSpline
 70
8
 71
3
 72
8
 73
4
 74
0
 40
0
 40
0
 40
0
 40
0
 40
1
 40
1
 40
1
 40
1
 10
143.691560
 20
196.383700
 30
0.0
 10
141.998220
 20
196.383700
 30
0.0
 10
140.831697
 20
195.903920
 30
0.0
 10
140.191992
 20
194.944360
 30
0.0
  0
SPLINE
  5
1d2
100
AcDbEntity
  8
Layer_1
 62
7
100
AcDbSpline
 70
8
 71
3
 72
8
 73
4
 74
0
 40
0
 40
0
 40
0
 40
0
 40
1
 40
1
 40
1
 40
1
 10
140.191992
 20
194.944360
 30
0.0
 10
139.571101
 20
194.003620
 30
0.0
 10
139.260656
 20
192.648950
 30
0.0
 10
139.260656
 20
190.880350
 30
0.0
  0
LWPOLYLINE
  5
1d3
100
AcDbEntity
  8
Layer_1
 62
7
100
AcDbPolyline
 90
4
 70
0
 10
149.533570
 20
192.912360
 30
0.0
 10
149.533570
 20
183.062770
 30
0.0
 10
147.078230
 20
183.062770
 30
0.0
 10
147.078230
 20
192.743020
 30
0.0
  0
LWPOLYLINE
  5
1d4
100
AcDbEntity
  8
Layer_1
 62
7
100
AcDbPolyline
 90
6
 70
0
 10
139.260656
 20
190.880350
 30
0.0
 10
139.260656
 20
183.062770
 30
0.0
 10
136.777094
 20
183.062770
 30
0.0
 10
136.777094
 20
204.511720
 30
0.0
 10
139.260656
 20
204.511720
 30
0.0
 10
139.260656
 20
198.218150
 30
0.0
  0
LWPOLYLINE
  5
1d5
100
AcDbEntity
  8
Layer_1
 62
7
100
AcDbPolyline
 90
4
 70
1
 10
152.948470
 20
189.525680
 30
0.0
 10
152.948470
 20
191.727020
 30
0.0
 10
159.778260
 20
191.727020
 30
0.0
 10
159.778260
 20
189.525680
 30
0.0
  0
LWPOLYLINE
  5
1d6
100
AcDbEntity
  8
Layer_1
 62
7
100
AcDbPolyline
 90
15
 70
1
 10
169.994760
 20
204.511720
 30
0.0
 10
169.430310
 20
199.093040
 30
0.0
 10
174.848990
 20
200.617040
 30
0.0
 10
175.244100
 20
198.020590
 30
0.0
 10
170.051200
 20
197.597260
 30
0.0
 10
173.409650
 20
193.138140
 30
0.0
 10
170.982540
 20
191.811690
 30
0.0
 10
168.583640
 20
196.750590
 30
0.0
 10
166.410520
 20
191.811690
 30
0.0
 10
163.898740
 20
193.138140
 30
0.0
 10
167.200750
 20
197.597260
 30
0.0
 10
162.064290
 20
198.020590
 30
0.0
 10
162.459400
 20
200.617040
 30
0.0
 10
167.821640
 20
199.093040
 30
0.0
 10
167.228970
 20
204.511720
 30
0.0
  0
SPLINE
  5
1d7
100
AcDbEntity
  8
Layer_1
 62
7
100
AcDbSpline
 70
8
 71
3
 72
8
 73
4
 74
0
 40
0
 40
0
 40
0
 40
0
 40
1
 40
1
 40
1
 40
1
 10
193.419260
 20
198.472150
 30
0.0
 10
195.225487
 20
198.472150
 30
0.0
 10
196.589563
 20
198.030000
 30
0.0
 10
197.511490
 20
197.145700
 30
0.0
  0
SPLINE
  5
1d8
100
AcDbEntity
  8
Layer_1
 62
7
100
AcDbSpline
 70
8
 71
3
 72
8
 73
4
 74
0
 40
0
 40
0
 40
0
 40
0
 40
1
 40
1
 40
1
 40
1
 10
197.511490
 20
197.145700
 30
0.0
 10
198.433417
 20
196.280220
 30
0.0
 10
198.894380
 20
194.869107
 30
0.0
 10
198.894380
 20
192.912360
 30
0.0
  0
LWPOLYLINE
  5
1d9
100
AcDbEntity
  8
Layer_1
 62
7
100
AcDbPolyline
 90
4
 70
1
 10
181.340120
 20
183.062770
 30
0.0
 10
178.856560
 20
183.062770
 30
0.0
 10
178.856560
 20
204.511720
 30
0.0
 10
181.340120
 20
204.511720
 30
0.0
  0
SPLINE
  5
1da
100
AcDbEntity
  8
Layer_1
 62
7
100
AcDbSpline
 70
8
 71
3
 72
8
 73
4
 74
0
 40
0
 40
0
 40
0
 40
0
 40
1
 40
1
 40
1
 40
1
 10
196.439040
 20
192.743020
 30
0.0
 10
196.439040
 20
195.170140
 30
0.0
 10
195.310150
 20
196.383700
 30
0.0
 10
193.052370
 20
196.383700
 30
0.0
  0
SPLINE
  5
1db
100
AcDbEntity
  8
Layer_1
 62
7
100
AcDbSpline
 70
8
 71
3
 72
8
 73
4
 74
0
 40
0
 40
0
 40
0
 40
0
 40
1
 40
1
 40
1
 40
1
 10
193.052370
 20
196.383700
 30
0.0
 10
191.377843
 20
196.383700
 30
0.0
 10
190.220727
 20
195.913327
 30
0.0
 10
189.581020
 20
194.972580
 30
0.0
  0
SPLINE
  5
1dc
100
AcDbEntity
  8
Layer_1
 62
7
100
AcDbSpline
 70
8
 71
3
 72
8
 73
4
 74
0
 40
0
 40
0
 40
0
 40
0
 40
1
 40
1
 40
1
 40
1
 10
189.581020
 20
194.972580
 30
0.0
 10
188.941320
 20
194.031840
 30
0.0
 10
188.621470
 20
192.677170
 30
0.0
 10
188.621470
 20
190.908570
 30
0.0
  0
LWPOLYLINE
  5
1dd
100
AcDbEntity
  8
Layer_1
 62
7
100
AcDbPolyline
 90
4
 70
0
 10
198.894380
 20
192.912360
 30
0.0
 10
198.894380
 20
183.062770
 30
0.0
 10
196.439040
 20
183.062770
 30
0.0
 10
196.439040
 20
192.743020
 30
0.0
  0
SPLINE
  5
1de
100
AcDbEntity
  8
Layer_1
 62
7
100
AcDbSpline
 70
8
 71
3
 72
8
 73
4
 74
0
 40
0
 40
0
 40
0
 40
0
 40
1
 40
1
 40
1
 40
1
 10
188.649690
 20
196.129700
 30
0.0
 10
189.138877
 20
196.919927
 30
0.0
 10
189.816210
 20
197.503187
 30
0.0
 10
190.681690
 20
197.879480
 30
0.0
  0
SPLINE
  5
1df
100
AcDbEntity
  8
Layer_1
 62
7
100
AcDbSpline
 70
8
 71
3
 72
8
 73
4
 74
0
 40
0
 40
0
 40
0
 40
0
 40
1
 40
1
 40
1
 40
1
 10
190.681690
 20
197.879480
 30
0.0
 10
191.547177
 20
198.274593
 30
0.0
 10
192.459700
 20
198.472150
 30
0.0
 10
193.419260
 20
198.472150
 30
0.0
  0
LWPOLYLINE
  5
1e0
100
AcDbEntity
  8
Layer_1
 62
7
100
AcDbPolyline
 90
7
 70
0
 10
188.621470
 20
190.908570
 30
0.0
 10
188.621470
 20
183.062770
 30
0.0
 10
186.137900
 20
183.062770
 30
0.0
 10
186.137900
 20
198.189930
 30
0.0
 10
188.141690
 20
198.189930
 30
0.0
 10
188.508580
 20
196.129700
 30
0.0
 10
188.649690
 20
196.129700
 30
0.0
  0
SPLINE
  5
1e1
100
AcDbEntity
  8
Layer_1
 62
7
100
AcDbSpline
 70
8
 71
3
 72
8
 73
4
 74
0
 40
0
 40
0
 40
0
 40
0
 40
1
 40
1
 40
1
 40
1
 10
202.083500
 20
180.635660
 30
0.0
 10
203.061873
 20
180.673260
 30
0.0
 10
203.823873
 20
180.899037
 30
0.0
 10
204.369500
 20
181.312990
 30
0.0
  0
SPLINE
  5
1e2
100
AcDbEntity
  8
Layer_1
 62
7
100
AcDbSpline
 70
8
 71
3
 72
8
 73
4
 74
0
 40
0
 40
0
 40
0
 40
0
 40
1
 40
1
 40
1
 40
1
 10
204.369500
 20
181.312990
 30
0.0
 10
204.933947
 20
181.708103
 30
0.0
 10
205.216170
 20
182.366623
 30
0.0
 10
205.216170
 20
183.288550
 30
0.0
  0
LWPOLYLINE
  5
1e3
100
AcDbEntity
  8
Layer_1
 62
7
100
AcDbPolyline
 90
1
 70
1
 10
193.419260
 20
198.472150
 30
0.0
  0
SPLINE
  5
1e4
100
AcDbEntity
  8
Layer_1
 62
7
100
AcDbSpline
 70
8
 71
3
 72
8
 73
4
 74
0
 40
0
 40
0
 40
0
 40
0
 40
1
 40
1
 40
1
 40
1
 10
205.216170
 20
187.380790
 30
0.0
 10
205.216170
 20
189.318717
 30
0.0
 10
206.241580
 20
190.466423
 30
0.0
 10
208.292400
 20
190.823910
 30
0.0
  0
LWPOLYLINE
  5
1e5
100
AcDbEntity
  8
Layer_1
 62
7
100
AcDbPolyline
 90
2
 70
0
 10
205.216170
 20
183.288550
 30
0.0
 10
205.216170
 20
187.380790
 30
0.0
  0
SPLINE
  5
1e6
100
AcDbEntity
  8
Layer_1
 62
7
100
AcDbSpline
 70
8
 71
3
 72
8
 73
4
 74
0
 40
0
 40
0
 40
0
 40
0
 40
1
 40
1
 40
1
 40
1
 10
208.292400
 20
190.993240
 30
0.0
 10
206.241580
 20
191.350720
 30
0.0
 10
205.216170
 20
192.498427
 30
0.0
 10
205.216170
 20
194.436360
 30
0.0
  0
LWPOLYLINE
  5
1e7
100
AcDbEntity
  8
Layer_1
 62
7
100
AcDbPolyline
 90
2
 70
0
 10
208.292400
 20
190.823910
 30
0.0
 10
208.292400
 20
190.993240
 30
0.0
  0
SPLINE
  5
1e8
100
AcDbEntity
  8
Layer_1
 62
7
100
AcDbSpline
 70
8
 71
3
 72
8
 73
4
 74
0
 40
0
 40
0
 40
0
 40
0
 40
1
 40
1
 40
1
 40
1
 10
205.216170
 20
198.556820
 30
0.0
 10
205.216170
 20
199.478747
 30
0.0
 10
204.943357
 20
200.137267
 30
0.0
 10
204.397730
 20
200.532380
 30
0.0
  0
SPLINE
  5
1e9
100
AcDbEntity
  8
Layer_1
 62
7
100
AcDbSpline
 70
8
 71
3
 72
8
 73
4
 74
0
 40
0
 40
0
 40
0
 40
0
 40
1
 40
1
 40
1
 40
1
 10
204.397730
 20
200.532380
 30
0.0
 10
203.852097
 20
200.946307
 30
0.0
 10
203.080687
 20
201.162677
 30
0.0
 10
202.083500
 20
201.181490
 30
0.0
  0
LWPOLYLINE
  5
1ea
100
AcDbEntity
  8
Layer_1
 62
7
100
AcDbPolyline
 90
2
 70
0
 10
205.216170
 20
194.436360
 30
0.0
 10
205.216170
 20
198.556820
 30
0.0
  0
SPLINE
  5
1eb
100
AcDbEntity
  8
Layer_1
 62
7
100
AcDbSpline
 70
8
 71
3
 72
8
 73
4
 74
0
 40
0
 40
0
 40
0
 40
0
 40
1
 40
1
 40
1
 40
1
 10
202.083500
 20
203.213500
 30
0.0
 10
203.814467
 20
203.194700
 30
0.0
 10
205.178543
 20
202.818400
 30
0.0
 10
206.175730
 20
202.084600
 30
0.0
  0
SPLINE
  5
1ec
100
AcDbEntity
  8
Layer_1
 62
7
100
AcDbSpline
 70
8
 71
3
 72
8
 73
4
 74
0
 40
0
 40
0
 40
0
 40
0
 40
1
 40
1
 40
1
 40
1
 10
206.175730
 20
202.084600
 30
0.0
 10
207.172917
 20
201.350820
 30
0.0
 10
207.671510
 20
200.231337
 30
0.0
 10
207.671510
 20
198.726150
 30
0.0
  0
LWPOLYLINE
  5
1ed
100
AcDbEntity
  8
Layer_1
 62
7
100
AcDbPolyline
 90
2
 70
0
 10
202.083500
 20
201.181490
 30
0.0
 10
202.083500
 20
203.213500
 30
0.0
  0
SPLINE
  5
1ee
100
AcDbEntity
  8
Layer_1
 62
7
100
AcDbSpline
 70
8
 71
3
 72
8
 73
4
 74
0
 40
0
 40
0
 40
0
 40
0
 40
1
 40
1
 40
1
 40
1
 10
207.671510
 20
194.605690
 30
0.0
 10
207.671510
 20
193.646137
 30
0.0
 10
207.963140
 20
192.959397
 30
0.0
 10
208.546400
 20
192.545470
 30
0.0
  0
SPLINE
  5
1ef
100
AcDbEntity
  8
Layer_1
 62
7
100
AcDbSpline
 70
8
 71
3
 72
8
 73
4
 74
0
 40
0
 40
0
 40
0
 40
0
 40
1
 40
1
 40
1
 40
1
 10
208.546400
 20
192.545470
 30
0.0
 10
209.148480
 20
192.150357
 30
0.0
 10
210.004557
 20
191.952800
 30
0.0
 10
211.114630
 20
191.952800
 30
0.0
  0
LWPOLYLINE
  5
1f0
100
AcDbEntity
  8
Layer_1
 62
7
100
AcDbPolyline
 90
2
 70
0
 10
207.671510
 20
198.726150
 30
0.0
 10
207.671510
 20
194.605690
 30
0.0
  0
SPLINE
  5
1f1
100
AcDbEntity
  8
Layer_1
 62
7
100
AcDbSpline
 70
8
 71
3
 72
8
 73
4
 74
0
 40
0
 40
0
 40
0
 40
0
 40
1
 40
1
 40
1
 40
1
 10
211.114630
 20
189.892570
 30
0.0
 10
210.004557
 20
189.873770
 30
0.0
 10
209.148480
 20
189.666807
 30
0.0
 10
208.546400
 20
189.271680
 30
0.0
  0
SPLINE
  5
1f2
100
AcDbEntity
  8
Layer_1
 62
7
100
AcDbSpline
 70
8
 71
3
 72
8
 73
4
 74
0
 40
0
 40
0
 40
0
 40
0
 40
1
 40
1
 40
1
 40
1
 10
208.546400
 20
189.271680
 30
0.0
 10
207.963140
 20
188.876567
 30
0.0
 10
207.671510
 20
188.208640
 30
0.0
 10
207.671510
 20
187.267900
 30
0.0
  0
LWPOLYLINE
  5
1f3
100
AcDbEntity
  8
Layer_1
 62
7
100
AcDbPolyline
 90
2
 70
0
 10
211.114630
 20
191.952800
 30
0.0
 10
211.114630
 20
189.892570
 30
0.0
  0
SPLINE
  5
1f4
100
AcDbEntity
  8
Layer_1
 62
7
100
AcDbSpline
 70
8
 71
3
 72
8
 73
4
 74
0
 40
0
 40
0
 40
0
 40
0
 40
1
 40
1
 40
1
 40
1
 10
207.671510
 20
183.062770
 30
0.0
 10
207.671510
 20
181.576397
 30
0.0
 10
207.154103
 20
180.466320
 30
0.0
 10
206.119290
 20
179.732540
 30
0.0
  0
SPLINE
  5
1f5
100
AcDbEntity
  8
Layer_1
 62
7
100
AcDbSpline
 70
8
 71
3
 72
8
 73
4
 74
0
 40
0
 40
0
 40
0
 40
0
 40
1
 40
1
 40
1
 40
1
 10
206.119290
 20
179.732540
 30
0.0
 10
205.084470
 20
178.979947
 30
0.0
 10
203.739207
 20
178.603650
 30
0.0
 10
202.083500
 20
178.603650
 30
0.0
  0
LWPOLYLINE
  5
1f6
100
AcDbEntity
  8
Layer_1
 62
7
100
AcDbPolyline
 90
2
 70
0
 10
207.671510
 20
187.267900
 30
0.0
 10
207.671510
 20
183.062770
 30
0.0
  0
LWPOLYLINE
  5
1f7
100
AcDbEntity
  8
Layer_1
 62
7
100
AcDbPolyline
 90
2
 70
0
 10
202.083500
 20
178.603650
 30
0.0
 10
202.083500
 20
180.635660
 30
0.0
  0
ENDSEC
  0
SECTION
  2
OBJECTS
  0
DICTIONARY
  5
C
330
0
100
AcDbDictionary
  3
ACAD_GROUP
350
D
  3
ACAD_MLINESTYLE
350
17
  0
DICTIONARY
  5
D
330
C
100
AcDbDictionary
  0
DICTIONARY
  5
1A
330
C
100
AcDbDictionary
  0
DICTIONARY
  5
17
330
C
100
AcDbDictionary
  3
STANDARD
350
18
  0
DICTIONARY
  5
19
330
C
100
AcDbDictionary
  0
ENDSEC
  0
EOF
